<svg width="1642" height="1675" viewBox="0 0 1642 1675" fill="none" xmlns="http://www.w3.org/2000/svg">
<path d="M1006.05 1432.47H575.076C532.684 1432.47 498 1397.78 498 1355.39V408.077C498 365.685 532.685 331 575.076 331H1006.05C1048.45 331 1083.13 365.685 1083.13 408.077V1355.39C1083.13 1397.78 1048.45 1432.47 1006.05 1432.47Z" fill="#2B478B"/>
<path d="M1054.13 415.373V1340.73C1054.13 1372.12 1028.63 1397.8 997.476 1397.8H583.651C552.498 1397.8 527.006 1372.12 527.006 1340.73V415.373C527.006 383.98 552.498 358.302 583.651 358.302H997.476C1028.63 358.301 1054.13 383.979 1054.13 415.373Z" fill="black"/>
<path d="M997.476 358.301L588.771 1397.8H583.651C552.498 1397.8 527.006 1372.12 527.006 1340.73V415.373C527.006 383.98 552.498 358.302 583.651 358.302L997.476 358.301Z" fill="#0D0D0D"/>
<path d="M877.047 392.714H704.09C690.002 392.714 678.475 381.187 678.475 367.098V363.071C678.475 348.982 690.002 337.455 704.09 337.455H877.047C891.135 337.455 902.662 348.982 902.662 363.071V367.098C902.663 381.186 891.135 392.714 877.047 392.714Z" fill="#2B478B"/>
<path d="M744.15 1272.4L636.935 1211.6C627.915 1206.49 623.338 1199.7 623.033 1192.55C623.008 1191.95 622.982 1167.71 623.017 1167.11C623.509 1158.45 630.189 1173.09 642.709 1165.99L737.238 1112.37C761.044 1098.87 797.052 1097.41 817.665 1109.1L924.88 1169.9C933.434 1174.76 938.09 1160.37 938.798 1167.11C938.9 1168.07 938.824 1189.78 938.77 1190.75C938.277 1199.4 931.626 1208.42 919.109 1215.51L824.58 1269.13C800.775 1282.63 764.766 1284.1 744.15 1272.4Z" fill="url(#paint0_linear_1556_1504)"/>
<path d="M744.149 1248.76L636.935 1187.95C616.321 1176.26 618.907 1155.84 642.709 1142.34L737.238 1088.73C761.043 1075.23 797.052 1073.76 817.665 1085.45L924.88 1146.26C945.493 1157.95 942.908 1178.37 919.105 1191.87L824.576 1245.48C800.774 1258.99 764.766 1260.45 744.149 1248.76Z" fill="url(#paint1_linear_1556_1504)"/>
<path d="M936.848 1158.06C939.919 1168.41 933.484 1180.14 917.962 1188.95L823.433 1242.56C799.631 1256.06 763.619 1257.52 743.006 1245.83L635.791 1185.02C629.906 1181.69 625.977 1177.62 623.827 1173.23C625.466 1178.75 629.763 1183.88 636.938 1187.95L744.153 1248.76C764.766 1260.45 800.774 1258.98 824.58 1245.48L919.109 1191.87C936.114 1182.23 942.225 1169.06 936.848 1158.06Z" fill="#FFF7F8"/>
<path d="M790.09 1220.72C790.09 1220.72 764.401 1220.39 748.253 1220.75C732.106 1221.11 701.052 1200.68 699.81 1200.11C698.568 1199.55 694.014 1192.48 703.952 1186.45C713.89 1180.43 713.89 1180.43 713.89 1180.43C713.89 1180.43 694.843 1169.45 690.288 1166.2C685.733 1162.94 728.793 1141.08 728.793 1141.08L796.026 1131.45L790.09 1220.72Z" fill="#0191C8"/>
<path d="M838.498 1076.56V1102.64H838.473C838.581 1105.52 836.907 1108.27 833.331 1110.29L748.521 1158.39C740.847 1162.74 727.339 1162.19 718.474 1157.17L702.098 1147.88C696.889 1144.92 693.662 1140.62 693.433 1136.69L693.408 1136.68V1111.1L693.541 1111.07L757.049 1095.95L782.544 1081.49C788.356 1078.19 798.799 1078.44 807.369 1080.95C809.135 1081.48 810.824 1082.08 812.378 1082.78L838.498 1076.56Z" fill="#BAC3E2"/>
<path d="M838.498 1076.56V1102.64H838.473C838.581 1105.52 836.907 1108.27 833.331 1110.29L748.521 1158.39C740.847 1162.74 727.339 1162.19 718.474 1157.17L702.098 1147.88C696.889 1144.92 693.662 1140.62 693.433 1136.69L693.408 1136.68V1111.1L693.541 1111.07C693.783 1119.92 694.465 1133.11 696.406 1137.07C699.404 1143.22 712.173 1149.87 724.893 1154.69C737.614 1159.51 743.941 1133.77 743.941 1133.77C743.941 1133.77 782.649 1101.44 807.366 1080.95C809.131 1081.48 810.821 1082.08 812.374 1082.78L838.498 1076.56Z" fill="#9BA5B8"/>
<path d="M748.517 1131.92L833.327 1083.82C840.994 1079.47 837.843 1070.56 828.988 1065.54L814.794 1057.49C805.939 1052.47 790.21 1050.66 782.543 1055.01L697.733 1103.11C690.066 1107.46 693.248 1116.39 702.103 1121.41L718.48 1130.7C727.332 1135.71 740.849 1136.26 748.517 1131.92Z" fill="#F8F9FB"/>
<path d="M828.401 1083.04L747.142 1129.13C741.653 1132.23 733.03 1132.72 725.49 1130.76C722.933 1130.1 720.497 1129.16 718.353 1127.95L704.75 1120.24C696.272 1115.42 695.335 1108.09 702.688 1103.92L783.947 1057.83C788.473 1055.27 795.115 1054.48 801.527 1055.37C805.545 1055.94 809.468 1057.15 812.733 1059L826.337 1066.71C834.817 1071.52 835.754 1078.87 828.401 1083.04Z" fill="#CBD6D9"/>
<path d="M828.401 1083.04L747.142 1129.13C741.654 1132.23 733.03 1132.72 725.49 1130.76C744.157 1120.07 780.562 1099.16 791.059 1092.55C803.001 1085.03 802.147 1062.59 801.531 1055.37C805.549 1055.94 809.471 1057.15 812.736 1059L826.34 1066.71C834.817 1071.52 835.754 1078.87 828.401 1083.04Z" fill="#B1BFC7"/>
<path d="M890.771 1106.41V1162.5L890.758 1162.52C890.866 1165.38 889.193 1168.14 885.604 1170.17L801.613 1217.81C800.609 1218.37 799.51 1218.86 798.319 1219.27C798.319 1219.27 798.294 1219.27 798.252 1219.28C790.42 1221.94 779.253 1220.94 771.566 1216.58L755.19 1207.3C749.981 1204.34 746.754 1200.03 746.541 1196.09H746.5V1140.49L760.586 1137.16L890.771 1106.41Z" fill="#BAC3E2"/>
<path d="M798.249 1219.28C790.417 1221.94 779.249 1220.94 771.563 1216.59L755.187 1207.3C749.978 1204.34 746.751 1200.03 746.538 1196.1H746.497V1140.49L760.583 1137.17L784.001 1157.56C784.001 1157.56 784.001 1206.08 784.001 1212.12C784.001 1220.75 797.296 1219.51 798.249 1219.28Z" fill="#9BA5B8"/>
<path d="M890.358 1157.89V1107.15L795.194 1140.01V1205.66L795.232 1205.67C795.454 1209.6 795.438 1218.58 801.197 1214.85L885.197 1167.22C890.774 1163.89 890.358 1157.89 890.358 1157.89Z" fill="#E9ECF3"/>
<path d="M801.609 1161.31L886.419 1113.21C894.086 1108.86 890.936 1099.96 882.081 1094.94L867.886 1086.89C859.031 1081.87 843.303 1080.06 835.632 1084.4L750.822 1132.51C743.155 1136.85 746.337 1145.78 755.193 1150.81L771.569 1160.1C780.421 1165.12 793.942 1165.66 801.609 1161.31Z" fill="#F8F9FB"/>
<path d="M881.49 1112.44L800.237 1158.52C796.146 1160.84 790.356 1161.69 784.566 1161.19C779.894 1160.79 775.244 1159.49 771.461 1157.35L757.848 1149.64C749.364 1144.83 748.424 1137.49 755.79 1133.32L837.042 1087.22C844.383 1083.05 857.338 1083.6 865.822 1088.39L879.435 1096.12C879.892 1096.37 880.324 1096.65 880.731 1096.92C887.991 1101.69 888.449 1108.5 881.49 1112.44Z" fill="#CBD6D9"/>
<path d="M881.49 1112.44L800.237 1158.52C796.146 1160.84 790.356 1161.69 784.566 1161.19C788.022 1157.07 790.077 1153.06 790.077 1153.06C790.077 1153.06 782.076 1149.26 808.085 1140.58C834.095 1131.9 833.206 1118.08 852.126 1116.93C871.05 1115.78 880.724 1096.92 880.724 1096.92C887.992 1101.69 888.449 1108.5 881.49 1112.44Z" fill="#B1BFC7"/>
<path d="M816.836 1135.5C818.503 1141.88 809.95 1149.55 797.728 1152.63C785.506 1155.71 774.25 1153.05 772.582 1146.67C770.915 1140.29 779.468 1132.63 791.69 1129.54C803.909 1126.46 815.168 1129.13 816.836 1135.5Z" fill="#909AAB"/>
<path d="M841.689 1130.2C841.359 1130.3 841.028 1130.4 840.698 1130.48C835.441 1131.8 830.36 1132.08 826.17 1131.45C824.29 1131.15 822.565 1130.7 821.091 1130.05C818.169 1128.83 816.165 1126.93 815.53 1124.52C814.615 1121 816.851 1117.06 821.091 1113.74C822.54 1112.59 824.242 1111.52 826.145 1110.57C828.66 1109.27 831.528 1108.2 834.654 1107.4C843.061 1105.28 851.011 1105.87 855.709 1108.52C857.817 1109.74 859.291 1111.37 859.796 1113.36C861.397 1119.55 853.371 1126.98 841.689 1130.2Z" fill="#909AAB"/>
<path d="M808.086 1071.66C808.086 1085.03 787.069 1092.09 775.2 1098.82C769.632 1101.98 781.019 1105.2 769.67 1104.47C762.727 1104.02 760.205 1102.41 758.017 1101.13C755.832 1099.86 754.187 1098.27 753.713 1096.06C753.497 1095.05 752.436 1087.03 753.624 1075.37C754.136 1070.37 765.138 1053.51 775.2 1048.92C792.088 1041.22 808.086 1058.28 808.086 1071.66Z" fill="#E4E5E9"/>
<path d="M803.944 1063.96C803.944 1071.15 801.177 1079.6 796.756 1086.94C794.571 1090.56 791.982 1093.93 789.136 1096.7C787.027 1098.77 784.795 1100.49 782.457 1101.81C771.56 1108 756.625 1102.98 755.329 1096.95C755.202 1096.32 754.745 1091.48 754.643 1086.47C754.542 1082.38 754.491 1075.07 754.618 1074.64C756.676 1067.63 765.769 1056 775.142 1050.19C786.977 1042.8 803.944 1050.56 803.944 1063.96Z" fill="#E9ECF3"/>
<path d="M763.613 1098.15C763.591 1098.66 763.375 1099.16 762.953 1099.45C762.607 1099.68 762.184 1099.75 761.501 1099.57C759.024 1098.94 757.61 1097.9 757.045 1096.97C756.693 1096.39 756.537 1095.21 756.537 1095.21C755.819 1091.33 755.657 1082.34 756.48 1078.88C756.635 1078.21 757.239 1077.76 757.938 1077.78C758.319 1077.8 758.795 1077.87 759.338 1078.07C759.472 1078.12 759.605 1078.17 759.738 1078.23C762.07 1079.26 762.146 1079.45 762.772 1080.34C763.883 1081.92 763.397 1085.33 763.397 1085.33C763.159 1093.03 763.553 1095.95 763.607 1097.54C763.623 1097.76 763.623 1097.96 763.613 1098.15Z" fill="#95A2D7"/>
<path d="M809.735 1081.75C809.735 1110.14 809.735 1141.21 809.735 1141.21C809.735 1142.33 809.175 1143.43 808.083 1144.4C807.702 1144.75 807.244 1145.05 806.736 1145.35C805.898 1145.82 804.958 1146.19 803.941 1146.47C802.01 1146.99 799.803 1147.17 797.719 1146.94C795.686 1146.74 793.758 1146.22 792.183 1145.32C790.074 1144.12 789.086 1142.55 789.159 1140.98H789.134V1091.73C789.134 1091.73 789.49 1087.71 786.44 1086.39C785.678 1086.04 784.713 1085.87 783.468 1085.97C777.881 1086.44 785.145 1047.34 785.145 1047.34C794.746 1047.34 801.553 1052.58 803.56 1055.7C806.663 1060.54 809.735 1063.09 809.735 1081.75Z" fill="#E9ECF3"/>
<path d="M808.086 1075.79V1144.4C807.705 1144.75 807.248 1145.05 806.74 1145.35C805.901 1145.82 804.961 1146.2 803.945 1146.47C803.97 1131.05 803.995 1095.85 803.945 1081.38C803.894 1062.62 800.136 1059.6 800.136 1059.6C800.136 1059.6 797.799 1056.5 801.534 1055.38C806.054 1059.4 808.086 1075.79 808.086 1075.79Z" fill="#F8F9FB"/>
<path d="M797.723 1146.94C795.69 1146.74 793.762 1146.22 792.187 1145.32C790.078 1144.12 789.09 1142.55 789.163 1140.98H789.138V1096.7C791.984 1093.93 794.572 1090.56 796.757 1086.94C797.393 1088.51 797.774 1090.66 797.723 1093.5C797.545 1106.2 797.672 1129.31 797.723 1146.94Z" fill="#BAC3E2"/>
<path d="M769.182 1088.59C769.595 1079.65 782.369 1066.74 790.735 1061.55C796.64 1057.89 800.918 1058.73 803.551 1062.17C802.169 1053.61 796.957 1048.78 787.985 1054.34C779.615 1059.52 766.844 1072.44 766.431 1081.38C766.069 1089.2 765.399 1097.06 769.039 1100.76C768.686 1097.14 768.985 1092.85 769.182 1088.59Z" fill="#F8F9FB"/>
<path d="M763.613 1097.53C761.311 1097.4 760.869 1096.34 760.869 1096.34C760.869 1096.34 760.882 1089.94 760.869 1083.89C760.863 1080.75 760.088 1079.01 759.341 1078.07C759.475 1078.12 759.608 1078.17 759.742 1078.23C762.073 1079.26 762.149 1079.45 762.775 1080.33C763.886 1081.92 763.4 1085.33 763.4 1085.33C763.165 1093.02 763.559 1095.94 763.613 1097.53Z" fill="#48466D"/>
<path d="M869.859 1077.83C868.563 1085.35 859.25 1098.79 848.369 1104.96C840.422 1109.47 832.961 1105.23 828.899 1097.92C827.568 1095.53 826.612 1092.82 826.11 1089.98C825.85 1088.52 825.716 1087.03 825.716 1085.54C825.716 1075.28 832.066 1066.41 840.371 1060.09C842.899 1058.16 845.602 1056.48 848.366 1055.06C849.843 1054.3 851.393 1053.79 852.955 1053.5C852.962 1053.5 852.968 1053.49 852.984 1053.49C853.644 1053.37 854.308 1053.28 854.969 1053.22C855.293 1053.2 855.582 1053.19 855.801 1053.17C856.462 1053.15 857.126 1053.16 857.773 1053.19C860.089 1053.34 862.287 1053.87 864.151 1054.65C866.292 1055.54 867.994 1056.75 868.973 1058.1C869.077 1058.24 869.176 1058.39 869.268 1058.54C869.662 1059.21 869.865 1059.89 869.859 1060.57C869.846 1061.69 870.078 1076.57 869.859 1077.83Z" fill="#E4E5E9"/>
<path d="M878.107 1081.21C878.107 1081.34 878.101 1081.45 878.095 1081.57C878.088 1081.94 878.066 1082.2 878.044 1082.33C877.987 1082.67 877.91 1083.03 877.806 1083.4C875.89 1091.07 866.937 1103.58 856.554 1109.46C852.669 1111.67 848.073 1111.77 843.636 1110.46C837.722 1108.69 832.107 1104.39 828.889 1099.13C827.152 1096.28 826.11 1093.14 826.11 1089.98C826.11 1078.88 836.957 1062.61 848.162 1055.8C848.169 1055.79 848.178 1055.78 848.185 1055.78C849.782 1054.81 851.38 1054.04 852.958 1053.5C852.965 1053.5 852.971 1053.49 852.987 1053.49C853.467 1053.33 854.289 1053.27 854.972 1053.23C855.296 1053.2 855.585 1053.19 855.804 1053.18C856.417 1053.14 857.078 1053.15 857.777 1053.2C859.698 1053.36 861.909 1053.89 864.154 1054.65C869.284 1056.39 874.566 1059.41 876.859 1062.29C877.625 1063.24 878.063 1064.19 878.047 1065.07V1065.27C878.047 1065.28 878.047 1065.28 878.047 1065.29C878.044 1067.15 878.199 1077.64 878.107 1081.21Z" fill="#E4E5E9"/>
<path d="M878.112 1081.2C878.112 1081.33 878.112 1081.45 878.086 1081.58C878.086 1081.83 878.061 1082.08 878.061 1082.33C878.01 1082.63 877.934 1083 877.807 1083.4C875.037 1092.68 865.512 1102.11 861.704 1105.21C860.027 1106.58 857.994 1107.78 855.71 1108.52C853.322 1109.35 850.657 1109.7 847.837 1109.35C846.592 1109.2 844.737 1109.72 844.054 1110.17C843.901 1110.25 843.749 1110.35 843.647 1110.45C841.615 1112.19 841.691 1115.91 841.691 1115.91V1130.21C841.36 1130.31 841.03 1130.41 840.7 1130.48C840.344 1130.58 839.988 1130.65 839.658 1130.7C838.26 1131.05 836.863 1131.28 835.519 1131.45C832.143 1131.88 828.967 1131.88 826.172 1131.45C824.292 1131.15 822.567 1130.7 821.093 1130.06V1104.58C821.093 1085.92 824.092 1078.71 827.214 1073.87C827.239 1073.82 827.29 1073.77 827.315 1073.72C828.815 1071.3 832.165 1065.83 840.369 1060.1C840.649 1059.9 840.928 1059.67 841.208 1059.5C841.691 1059.15 842.148 1058.8 842.631 1058.5C842.86 1058.35 843.114 1058.17 843.342 1058.02C843.596 1057.82 843.851 1057.68 844.079 1057.55C845.096 1056.95 846.188 1056.35 847.484 1055.8C847.535 1055.78 847.84 1055.68 847.84 1055.68C848.754 1055.28 849.618 1054.83 850.609 1054.48C851.041 1054.33 851.702 1054.11 852.21 1053.96C852.388 1053.91 852.566 1053.83 852.769 1053.81C853.963 1053.53 855.31 1053.41 857.416 1053.53C857.95 1053.58 858.432 1053.58 858.89 1053.61C860.287 1053.66 861.507 1053.78 863.664 1054.78C863.689 1054.78 863.714 1054.78 863.714 1054.8C863.994 1054.93 864.273 1055.08 864.578 1055.23C864.934 1055.4 865.874 1055.7 866.763 1055.95C866.763 1055.98 866.763 1055.98 866.789 1055.98C867.475 1056.18 868.11 1056.38 868.364 1056.53C868.923 1056.83 869.431 1057.1 869.914 1057.38C869.94 1057.4 869.94 1057.4 869.965 1057.4C869.965 1057.43 869.99 1057.43 869.99 1057.43C872.023 1058.57 873.268 1059.35 873.268 1059.35C873.751 1059.85 875.58 1061.22 876.038 1061.67C876.724 1062.34 877.74 1063.89 878.071 1065.26C878.071 1065.29 878.071 1065.29 878.071 1065.29C878.172 1065.79 878.223 1066.44 878.147 1067.26C877.985 1069.23 878.341 1076.51 878.112 1081.2Z" fill="#E9ECF3"/>
<path d="M839.658 1086.94V1130.7C838.261 1131.05 836.863 1131.28 835.52 1131.45V1092.63L839.658 1086.94Z" fill="#F8F9FB"/>
<path d="M878.13 1079.99C878.028 1080.56 877.244 1070.45 876.437 1069.2C873.836 1065.2 866.886 1065.88 859.47 1069.7C850.173 1074.49 838.644 1080.33 838.491 1104.08C836.586 1101.96 835.417 1099.07 835.417 1095.47C835.417 1077.01 847.229 1068.25 857.793 1062.81C866.175 1058.5 877.536 1060.47 877.485 1064.84C877.457 1065.79 878.308 1078.89 878.13 1079.99Z" fill="#F8F9FB"/>
<path d="M876.84 1062.29C875.646 1061.42 874.426 1059.57 869.983 1057.42C869.983 1057.42 869.957 1057.42 869.957 1057.4C869.932 1057.4 869.932 1057.4 869.907 1057.37C868.865 1056.88 867.823 1056.4 866.781 1055.98C866.756 1055.98 866.756 1055.98 866.756 1055.95C865.74 1055.53 864.723 1055.15 863.707 1054.8C863.707 1054.78 863.681 1054.78 863.656 1054.78C862.03 1054.23 861.668 1054.05 860.118 1053.82C857.983 1053.5 856.43 1053.91 854.502 1054.41C854.299 1054.44 854.121 1054.51 853.943 1054.56C853.511 1054.69 853.105 1054.84 852.673 1055.01C848.407 1056.81 844.034 1059.62 840.73 1063.04C832.704 1071.33 826.193 1078.31 826.193 1106.18C826.193 1107.15 826.168 1108.65 826.142 1110.57V1112.56C826.117 1117.9 826.117 1120.1 826.117 1120.85C826.117 1120.85 826.142 1124.41 826.168 1131.45C824.287 1131.15 822.563 1130.7 821.089 1130.05V1104.58C821.089 1085.92 824.087 1078.71 827.209 1073.87C827.235 1073.82 827.286 1073.77 827.311 1073.72C828.81 1071.3 832.161 1065.83 840.365 1060.1C840.645 1059.9 840.924 1059.67 841.204 1059.5C841.686 1059.15 842.144 1058.8 842.626 1058.5C842.855 1058.35 843.109 1058.17 843.338 1058.02C843.592 1057.82 843.846 1057.67 844.075 1057.55C845.472 1056.63 846.921 1055.8 848.366 1055.05C849.84 1054.3 851.39 1053.78 852.962 1053.51C852.962 1053.51 852.962 1053.48 852.987 1053.48C853.47 1053.33 854.283 1053.26 854.969 1053.23C855.299 1053.21 855.579 1053.18 855.808 1053.18C856.417 1053.13 857.078 1053.16 857.764 1053.18C860.076 1053.33 862.284 1053.86 864.139 1054.65C869.271 1056.4 874.553 1059.4 876.84 1062.29Z" fill="#BAC3E2"/>
<path d="M790.09 1080.22C790.09 1083.4 787.807 1087.27 784.986 1088.87C782.169 1090.47 779.882 1089.19 779.882 1086.01C779.882 1082.84 782.169 1078.96 784.986 1077.37C787.804 1075.77 790.09 1077.05 790.09 1080.22Z" fill="#C0CAE5"/>
<path d="M868.611 1082.25C868.611 1085.43 866.324 1089.31 863.506 1090.9C860.686 1092.5 858.402 1091.22 858.402 1088.05C858.402 1084.87 860.689 1081 863.506 1079.4C866.324 1077.8 868.611 1079.08 868.611 1082.25Z" fill="#C0CAE5"/>
<path d="M752.15 946.91L644.935 886.104C635.915 880.991 631.338 874.205 631.033 867.057C631.008 866.458 630.982 842.212 631.017 841.61C631.509 832.959 638.189 847.591 650.709 840.49L745.242 786.88C769.047 773.379 805.052 771.913 825.669 783.604L932.883 844.409C941.437 849.26 946.093 834.871 946.801 841.61C946.903 842.574 946.827 864.283 946.773 865.257C946.28 873.908 939.63 882.922 927.112 890.02L832.583 943.63C808.775 957.134 772.766 958.6 752.15 946.91Z" fill="url(#paint2_linear_1556_1504)"/>
<path d="M752.15 923.263L644.935 862.458C624.322 850.767 626.907 830.344 650.709 816.844L745.238 763.233C769.044 749.733 805.049 748.266 825.665 759.957L932.88 820.762C953.494 832.453 950.908 852.876 927.106 866.376L832.577 919.987C808.775 933.487 772.766 934.954 752.15 923.263Z" fill="url(#paint3_linear_1556_1504)"/>
<path d="M944.848 832.562C947.919 842.91 941.484 854.648 925.962 863.449L831.433 917.06C807.631 930.56 771.619 932.026 751.006 920.333L643.791 859.528C637.906 856.189 633.977 852.127 631.827 847.731C633.466 853.253 637.763 858.386 644.938 862.454L752.153 923.259C772.769 934.95 808.774 933.483 832.58 919.983L927.109 866.373C944.114 856.732 950.225 843.566 944.848 832.562Z" fill="#FFF7F8"/>
<path d="M833.175 902.328C833.175 902.328 815.868 904.765 787.08 902.328C758.291 899.891 721.098 871.864 715.908 872.495C710.718 873.128 676.292 847.922 675.99 846.078C675.688 844.237 673.957 832.029 684.769 821.776C695.581 811.524 754.441 780.468 754.441 780.468C754.441 780.468 904.477 862.916 905.776 863.562C907.075 864.205 909.178 867.606 896.016 869.303C882.854 871.003 861.462 886.372 860.024 888.847C858.582 891.324 833.175 902.328 833.175 902.328Z" fill="#0191C8"/>
<path d="M922.702 835.984C922.702 835.984 923.537 849.091 922.702 853.971C921.701 859.824 898.344 870.373 878.318 866.676C853.483 862.092 820.108 837.363 815.068 833.03C810.027 828.696 802.747 821.302 797.287 818.824C795.286 817.916 790.065 815.764 784.456 815.764C777.732 812.653 770.541 811.233 767.816 809.571C764.951 807.82 761.822 805.696 759.64 804.173C757.817 802.903 756.724 800.872 756.69 798.676C756.67 797.524 756.658 795.999 756.658 793.986C756.658 786.561 756.42 778.973 757.649 776.184C758.859 773.432 767.177 765.888 774.737 771.251C781.149 775.8 889.152 820.016 916.159 828.347C920.996 829.835 922.702 835.984 922.702 835.984Z" fill="#F76063"/>
<path d="M756.584 788.178C756.584 788.465 756.607 788.795 756.629 789.192C756.651 790.362 756.673 800.377 756.696 801.525C756.718 803.731 762.765 808.302 766.691 810.283C769.553 811.727 791.675 818.407 799.815 823.864C804.78 827.19 808.613 830.691 816.7 835.895C822.318 839.511 853.486 862.087 878.324 866.676C898.334 870.383 921.228 863.563 922.701 853.981C923.143 851.108 923.105 846.662 922.949 841.941C922.927 840.927 922.882 839.979 922.86 839.161C922.838 838.896 922.838 838.631 922.816 838.391C922.771 840.706 921.609 843.838 920.904 844.986C915.196 854.265 898.546 858.689 878.514 855.005C853.677 850.415 821.486 828.55 816.455 824.229C811.402 819.883 807.324 815.25 802.134 812.273C800.053 811.082 792.647 806.395 785.072 804.336C777.671 802.324 770.283 799.566 767.564 797.89C764.69 796.146 761.568 794.031 759.389 792.508C757.95 791.494 756.962 790.015 756.603 788.384C756.584 788.309 756.584 788.243 756.584 788.178Z" fill="#DD2B2F"/>
<path d="M756.645 784.358C756.661 787.712 756.68 793.624 756.696 794.489C756.718 796.694 762.765 801.265 766.691 803.246C769.553 804.691 791.675 811.371 799.815 816.828C804.78 820.153 808.613 823.654 816.7 828.858C822.318 832.474 853.486 855.05 878.324 859.64C898.334 863.346 921.228 856.526 922.701 846.945C922.914 845.563 923.013 843.809 923.044 841.84C923.082 844.985 923.013 847.809 922.701 849.84C921.228 859.425 898.334 866.242 878.324 862.535C853.486 857.946 822.318 835.37 816.7 831.754C808.61 826.546 804.78 823.049 799.815 819.723C791.675 814.266 769.55 807.586 766.691 806.142C762.762 804.16 756.718 799.59 756.696 797.384C756.673 796.236 756.651 786.221 756.629 785.051C756.607 784.654 756.584 784.324 756.584 784.037C756.584 784.102 756.584 784.168 756.607 784.236C756.616 784.277 756.635 784.314 756.645 784.358Z" fill="#CBCCCF"/>
<path d="M759.392 786.64C763.683 792.839 773.113 796.259 780.974 799.279C788.791 802.302 802.893 806.427 817.716 820.766C818.704 821.758 819.851 822.75 821.108 823.789C825.958 827.827 832.45 832.282 839.457 836.497C853.874 845.189 870.38 852.247 878.13 853.46C888.056 855.048 901.307 856.615 914.377 848.453C915.545 847.726 916.489 846.908 917.295 846.004C920.17 842.737 920.843 838.481 920.643 834.575C920.51 832.787 918.668 828.11 918.261 826.544C916.8 820.545 902.136 813.219 892.277 806.424C882.396 799.606 865.327 778.054 854.795 769.495C851.65 766.915 840.67 750.679 834.785 748.186C828.925 745.737 815.83 741.016 811.675 737.553C804.354 731.441 793.349 722.683 778.91 722.287H778.887C778.551 722.265 778.214 722.265 777.877 722.265C777.877 722.265 759.776 722.265 759.395 746.489C759.373 748.364 759.081 750.173 758.97 751.939C758.881 753.066 758.814 754.167 758.744 755.25C757.506 773.579 757.82 784.365 759.392 786.64Z" fill="#CBCCCF"/>
<path d="M802.623 773.071C802.623 773.071 799.079 778.269 794.025 772.572C788.972 766.875 781.873 761.483 776.445 758.725C771.017 755.967 762.693 753.792 760.634 743.131C758.576 732.467 769.467 720.761 781.534 722.106C792.657 723.348 797.662 726.402 807.429 734.108C817.291 741.89 826.064 744.255 826.064 744.255C826.064 744.255 824.053 747.269 822.649 747.269C821.245 747.269 814.556 745.914 808.099 741.409C801.642 736.904 793.736 730.171 786.717 727.875C779.698 725.575 773.196 725.99 769.451 731.413C765.71 736.835 764.821 743.546 766.364 745.936C768.349 749.01 769.966 750.579 775.956 752.51C781.943 754.441 792.132 763.839 792.132 763.839L796.261 768.687L801.219 771.246C801.219 771.246 806.368 770.559 802.623 773.071Z" fill="#EEEFF0"/>
<path d="M778.909 722.286C789.308 724.052 792.586 724.57 803.48 733.075C813.656 741.022 815.26 742.585 822.839 745.065C830.252 747.492 834.181 750.304 835.661 751.938C837.122 753.592 869.573 786.704 874.467 792.442C879.365 798.198 882.621 804.441 888.122 806.164C893.623 807.883 913.655 826.681 915.205 829.988C916.733 833.276 917.295 846.003 917.295 846.003C920.169 842.736 920.843 838.48 920.643 834.574C920.509 832.786 918.667 828.11 918.26 826.543C916.799 820.544 902.135 813.218 892.276 806.423C882.395 799.606 865.326 778.053 854.794 769.495C851.65 766.914 840.67 750.678 834.784 748.185C828.924 745.736 815.829 741.015 811.675 737.552C804.354 731.443 793.348 722.685 778.909 722.286Z" fill="#B9BABE"/>
<path d="M758.544 760.232C758.544 760.232 762.482 766.138 772.869 771.252C783.255 776.365 795.257 787.12 802.134 793.531C809.01 799.943 811.256 804.976 813.362 809.25C815.467 813.524 817.707 820.772 817.707 820.772C817.707 820.772 807.044 808.938 788.518 802.13C769.991 795.322 761.568 790.153 759.462 785.741C757.359 781.326 758.544 760.232 758.544 760.232Z" fill="#DDDDE0"/>
<path d="M806.742 772.092C806.742 772.092 809.83 769.275 815.445 773.072C821.061 776.872 833.321 789.842 839.822 795.626C846.324 801.414 850.628 804.998 852.689 809.317C854.747 813.638 855.471 822.623 855.471 825.378C855.471 825.378 861.662 830.985 871.473 833.306C880.827 835.518 884.073 835.328 886.112 835.512C888.151 835.696 888.9 849.025 888.122 854.172C884.689 854.541 874.817 852.765 865.32 848.84C852.508 843.546 841.366 836.488 841.366 836.488C841.366 836.488 834.131 815.198 827.502 805.548C820.873 795.894 799.539 777.967 784.941 769.974C770.343 761.98 767.723 759.681 765.757 757.75C763.791 755.818 760.612 752.695 760.237 750.673C759.862 748.652 760.799 741.866 760.799 741.866C760.799 741.866 760.237 750.673 774.136 756.037C787.692 761.266 791.678 770.467 796.077 773.072C800.473 775.674 806.742 772.092 806.742 772.092Z" fill="#DDDDE0"/>
<path d="M853.108 813.343C854.064 816.073 853.343 818.516 851.498 818.8C849.653 819.084 847.385 817.103 846.429 814.373C845.473 811.643 846.194 809.2 848.039 808.916C849.885 808.632 852.156 810.616 853.108 813.343Z" fill="#C03033"/>
<path d="M876.383 794.642C878.191 797.204 878.8 799.722 877.746 800.265C876.691 800.807 874.373 799.169 872.566 796.608C870.758 794.046 870.149 791.529 871.203 790.986C872.258 790.443 874.576 792.081 876.383 794.642Z" fill="#C03033"/>
<path d="M861.928 778.184C863.736 780.745 864.345 783.263 863.291 783.806C862.236 784.349 859.918 782.711 858.111 780.15C856.303 777.588 855.693 775.07 856.748 774.527C857.802 773.981 860.121 775.619 861.928 778.184Z" fill="#C03033"/>
<path d="M846.442 760.644C848.249 763.205 848.859 765.723 847.804 766.266C846.75 766.809 844.431 765.171 842.624 762.609C840.817 760.048 840.207 757.53 841.261 756.987C842.319 756.444 844.637 758.082 846.442 760.644Z" fill="#C03033"/>
<path d="M836.405 793.237C837.752 795.802 837.396 798.323 835.614 798.863C833.832 799.406 831.295 797.765 829.948 795.2C828.601 792.635 828.957 790.114 830.739 789.575C832.52 789.032 835.058 790.67 836.405 793.237Z" fill="#C03033"/>
<path d="M816.884 776.836C818.231 779.401 817.875 781.922 816.094 782.461C814.312 783.004 811.774 781.363 810.427 778.798C809.081 776.234 809.436 773.713 811.218 773.173C813 772.63 815.538 774.271 816.884 776.836Z" fill="#C03033"/>
<path d="M758.545 758.42C761.74 762.036 766.876 766.965 772.466 769.405C781.795 773.523 804.072 790.056 813.032 802.92C817.396 809.197 819.877 818.192 821.106 823.796C825.956 827.83 832.461 832.285 839.448 836.491C838.165 832.959 835.824 827.131 831.66 817.465C821.732 794.543 788.328 771.845 777.888 767.39C767.419 762.934 759.002 751.977 758.974 751.949C758.888 753.069 758.802 754.164 758.745 755.256C758.659 756.348 758.602 757.412 758.545 758.42Z" fill="#DE373B"/>
<path d="M890.777 806.427C890.777 806.427 914.995 820.941 916.396 824.676C917.797 828.41 915.3 832.238 903.825 835.514C892.349 838.79 886.518 837.599 875.986 835.72C862.068 833.24 855.471 825.381 855.471 825.381C855.471 825.381 874.331 807.837 890.777 806.427Z" fill="#F1F2F4"/>
<path d="M774.641 751.409C779.11 752.953 783.556 756.064 787.485 759.462C792.113 763.477 795.975 767.889 798.199 770.603C801.657 774.84 838.152 757.278 824.43 747.197C824.43 747.197 816.684 748.145 809.182 744.021C802.086 740.14 796.918 733.519 788.162 730.499C787.622 730.321 787.063 730.146 786.501 729.99C779.091 727.915 773.879 729.351 770.601 733.762C768.219 736.935 761.841 746.975 774.641 751.409Z" fill="#BA2727"/>
<path d="M796.112 769.124C799.053 771.795 803.367 772.5 803.367 772.5C803.367 772.5 810.665 767.336 815.068 771.242C819.492 775.17 842.106 795.641 850.056 803.715C857.107 810.907 856.837 814.414 856.637 817.106C856.412 819.777 856.571 822.07 856.571 822.07C856.571 822.07 862.993 817.571 872.559 811.79C876.984 809.119 881.586 807.643 884.619 806.891C886.776 806.339 888.123 806.164 888.123 806.164C888.123 806.164 875.859 803.032 871.661 798.486C867.462 793.94 847.855 772.896 844.914 769.586C841.973 766.275 838.581 759.549 836.897 755.642C835.236 751.718 834.337 744.679 830.767 742.408C827.197 740.136 822.144 745.649 818.393 747.106C803.862 752.732 796.226 757.056 794.565 762.438C794.565 762.438 792.631 765.991 796.112 769.124Z" fill="#BA1A1D"/>
<path d="M796.112 769.124C799.053 771.794 803.367 772.499 803.367 772.499C803.367 772.499 800.47 765.021 803.367 760.784C806.285 756.547 811.339 754.784 818.167 751.939C824.996 749.115 830.675 745.253 831.148 745.165C831.644 745.078 833.797 747.836 835.011 753.24C836.224 758.665 842.287 769.167 848.328 775.211C854.369 781.276 870.854 799.191 872.448 800.623C874.02 802.058 880.039 805.74 884.619 806.888C886.776 806.336 888.123 806.161 888.123 806.161C888.123 806.161 875.859 803.028 871.661 798.483C867.462 793.937 847.855 772.893 844.914 769.582C841.973 766.272 838.581 759.545 836.897 755.639C835.236 751.714 834.337 744.675 830.767 742.404C827.197 740.133 822.144 745.646 818.393 747.103C803.862 752.728 796.226 757.052 794.565 762.434C794.565 762.434 792.631 765.991 796.112 769.124Z" fill="#DE373B"/>
<path d="M861.963 782.608L835.902 797.3L831.386 791.138L853.279 776.999L861.963 782.608Z" fill="#E9EAEB"/>
<path d="M845.305 766.265L815.82 781.219L812.101 774.022L840.944 758.996C842.056 758.416 843.434 758.809 844.057 759.882L846.147 763.476C846.725 764.468 846.343 765.738 845.305 766.265Z" fill="#E9EAEB"/>
<path d="M875.784 797.909L852.925 816.454C851.778 817.268 850.168 816.969 849.403 815.799L847.576 813.003C846.896 811.965 847.154 810.582 848.167 809.846L872.465 792.196L875.784 797.909Z" fill="#E9EAEB"/>
<path d="M874.955 798.324L837.085 797.915C835.681 797.9 834.382 797.195 833.623 796.034L831.365 792.58C830.793 791.707 831.441 790.558 832.496 790.571L870.683 790.98C871.785 790.992 872.798 791.576 873.344 792.515L875.85 796.823C876.241 797.497 875.742 798.333 874.955 798.324Z" fill="white"/>
<path d="M861.099 782.903L816.725 781.277C815.772 781.243 814.905 780.719 814.448 779.895L811.84 775.224C811.478 774.575 811.977 773.789 812.726 773.817L857.25 775.574C858.434 775.62 859.511 776.263 860.102 777.277L862.271 781.009C862.773 781.873 862.109 782.943 861.099 782.903Z" fill="white"/>
<path d="M823.538 744.042C823.538 744.042 827.499 742.619 830.764 758.347V758.35C826.666 760.937 816.328 766.035 816.344 766.013L816.347 766.01C816.328 765.96 813.469 756.332 812.329 754.204C810.763 751.29 808.616 750.969 808.616 750.969L823.538 744.042Z" fill="#F3F4F5"/>
<path d="M774.641 751.409C779.11 752.953 783.557 756.064 787.486 759.462C786.364 751.365 788.159 730.496 788.159 730.496C787.619 730.318 787.06 730.143 786.498 729.987C779.088 727.913 773.876 729.348 770.598 733.759C768.219 736.935 761.841 746.976 774.641 751.409Z" fill="#A5211F"/>
<path d="M863.775 870.611C863.775 870.611 864.61 883.718 863.775 888.598C862.774 894.451 839.417 904.999 819.391 901.302C794.557 896.719 761.591 877.356 756.55 873.026C751.51 868.692 744.23 861.298 738.77 858.821C736.769 857.913 731.138 850.39 725.529 850.39C718.805 847.28 711.614 845.86 708.889 844.197C706.024 842.447 702.899 840.322 700.713 838.8C698.89 837.527 697.798 835.499 697.763 833.302C697.744 832.151 697.731 830.625 697.731 828.613C697.731 821.187 697.493 813.6 698.719 810.807C699.929 808.055 708.247 800.511 715.807 805.874C722.219 810.423 830.219 854.64 857.229 862.97C862.069 864.465 863.775 870.611 863.775 870.611Z" fill="#F76063"/>
<path d="M697.655 820.679C697.655 820.966 697.677 821.297 697.699 821.693C697.722 822.863 697.744 835.006 697.766 836.154C697.788 838.36 703.836 842.93 707.761 844.912C710.623 846.356 733.155 858.406 741.295 863.859C746.26 867.185 750.093 870.686 758.18 875.89C763.799 879.506 794.557 896.713 819.394 901.302C839.404 905.009 862.298 898.188 863.772 888.607C864.213 885.733 864.175 881.287 864.019 876.567C863.997 875.553 863.953 874.604 863.93 873.787C863.908 873.522 863.908 873.257 863.886 873.016C863.842 875.331 862.679 878.461 861.971 879.612C856.263 888.891 839.614 893.315 819.582 889.63C794.744 885.041 762.963 868.545 757.932 864.221C752.879 859.875 749.43 855.966 744.83 852.169C741.927 849.773 735.096 843.52 723.976 839.186C716.839 836.407 711.35 832.831 708.632 831.156C705.757 829.412 702.635 826.526 700.456 825.003C699.021 823.989 698.03 822.51 697.671 820.878C697.655 820.81 697.655 820.744 697.655 820.679Z" fill="#DD2B2F"/>
<path d="M697.718 816.858C697.734 820.212 697.753 828.252 697.769 829.119C697.792 831.325 703.839 835.896 707.765 837.877C710.627 839.322 733.158 851.371 741.299 856.825C746.263 860.151 750.097 863.651 758.183 868.855C763.802 872.471 794.56 889.678 819.398 894.268C839.407 897.974 862.301 891.154 863.775 881.572C863.988 880.19 864.086 878.437 864.118 876.468C864.156 879.613 864.086 882.437 863.775 884.468C862.301 894.052 839.407 900.869 819.398 897.163C794.56 892.573 763.802 875.367 758.183 871.751C750.094 866.543 746.263 863.046 741.299 859.72C733.158 854.263 710.623 842.214 707.765 840.772C703.839 838.791 697.792 834.22 697.769 832.015C697.747 830.867 697.725 818.724 697.703 817.554C697.68 817.157 697.658 816.827 697.658 816.54C697.658 816.605 697.658 816.671 697.68 816.739C697.687 816.78 697.709 816.817 697.718 816.858Z" fill="#CBCCCF"/>
<path d="M700.465 819.138C704.756 825.338 714.186 830.885 722.047 833.908C729.864 836.931 744.376 846.422 759.199 860.762C760.187 861.754 761.334 862.746 762.591 863.785C767.441 867.822 773.231 869.9 780.241 874.115C794.658 882.808 811.457 886.876 819.203 888.09C829.129 889.678 842.38 891.244 855.45 883.082C856.619 882.355 857.562 881.538 858.369 880.633C861.243 877.366 861.916 873.111 861.716 869.204C861.58 867.417 859.741 862.74 859.334 861.174C857.873 855.174 843.209 847.848 833.35 841.053C823.469 834.236 806.4 812.683 795.868 804.125C792.724 801.545 781.74 785.308 775.858 782.815C769.998 780.366 756.903 775.646 752.748 772.182C745.427 766.07 734.422 757.313 719.983 756.916H719.961C719.624 756.894 719.287 756.895 718.951 756.895C718.951 756.895 700.85 756.895 700.469 781.118C700.446 782.993 700.154 784.803 700.043 786.566C699.954 787.692 699.887 788.793 699.817 789.876C698.579 808.206 698.893 816.867 700.465 819.138Z" fill="#CBCCCF"/>
<path d="M743.697 807.7C743.697 807.7 740.152 812.898 735.099 807.201C730.045 801.504 722.944 796.113 717.519 793.355C712.091 790.596 703.766 788.422 701.708 777.761C699.649 767.097 710.541 755.391 722.607 756.735C733.73 757.977 738.735 761.032 748.502 768.738C758.364 776.519 767.137 778.884 767.137 778.884C767.137 778.884 765.126 781.898 763.722 781.898C762.318 781.898 755.629 780.544 749.172 776.039C742.715 771.533 734.81 764.8 727.79 762.504C720.771 760.205 714.269 760.62 710.525 766.042C706.783 771.465 705.894 778.176 707.438 780.566C709.423 783.639 711.039 785.208 717.03 787.14C723.017 789.071 733.206 798.468 733.206 798.468L737.335 803.317L742.293 805.875C742.293 805.875 747.441 805.186 743.697 807.7Z" fill="#EEEFF0"/>
<path d="M719.979 756.916C730.378 758.681 733.656 759.199 744.547 767.704C754.724 775.651 756.328 777.211 763.906 779.695C771.319 782.122 775.248 784.933 776.728 786.565C778.189 788.218 810.64 821.334 815.535 827.068C820.429 832.825 823.688 839.068 829.189 840.79C834.69 842.509 854.725 861.307 856.272 864.614C857.8 867.903 858.362 880.629 858.362 880.629C861.236 877.362 861.91 873.107 861.71 869.2C861.573 867.413 859.734 862.736 859.328 861.17C857.867 855.17 843.202 847.844 833.343 841.049C823.462 834.232 806.394 812.679 795.861 804.121C792.717 801.541 781.734 785.304 775.851 782.811C769.991 780.362 756.896 775.642 752.742 772.178C745.427 766.07 734.422 757.312 719.979 756.916Z" fill="#B9BABE"/>
<path d="M699.618 794.861C699.618 794.861 703.556 800.767 713.942 805.881C724.328 810.995 736.331 821.749 743.207 828.161C750.084 834.572 752.742 844.971 754.845 849.246C756.951 853.52 759.19 860.768 759.19 860.768C759.19 860.768 748.118 843.564 729.591 836.76C711.064 829.952 702.641 822.654 700.535 818.242C698.43 813.828 699.618 794.861 699.618 794.861Z" fill="#DDDDE0"/>
<path d="M747.816 806.717C747.816 806.717 750.903 803.899 756.518 807.696C762.134 811.493 774.394 824.466 780.895 830.251C787.397 836.035 791.701 839.623 793.762 843.941C795.82 848.262 796.544 857.248 796.544 860.003C796.544 860.003 804.745 864.168 814.556 866.489C823.91 868.701 827.156 868.511 829.195 868.695C831.235 868.879 829.974 883.649 829.195 888.797C825.762 889.165 815.89 887.39 806.394 883.465C793.578 878.171 782.15 874.102 782.15 874.102C782.15 874.102 775.207 849.822 768.575 840.172C761.946 830.519 740.612 812.592 726.014 804.598C711.417 796.605 708.796 794.305 706.83 792.374C704.864 790.443 701.685 787.32 701.31 785.295C700.935 783.273 701.872 776.487 701.872 776.487C701.872 776.487 701.31 785.295 715.209 790.658C728.765 795.887 732.751 805.088 737.15 807.693C741.549 810.299 747.816 806.717 747.816 806.717Z" fill="#DDDDE0"/>
<path d="M794.182 847.972C795.138 850.702 794.417 853.145 792.571 853.429C790.726 853.713 788.458 851.732 787.502 849.002C786.546 846.272 787.267 843.829 789.113 843.545C790.958 843.261 793.226 845.242 794.182 847.972Z" fill="#C03033"/>
<path d="M817.454 829.272C819.261 831.833 819.871 834.351 818.817 834.894C817.762 835.437 815.444 833.799 813.636 831.237C811.829 828.676 811.219 826.158 812.274 825.615C813.328 825.072 815.65 826.71 817.454 829.272Z" fill="#C03033"/>
<path d="M803.001 812.811C804.809 815.372 805.419 817.89 804.364 818.433C803.31 818.976 800.991 817.338 799.184 814.776C797.377 812.215 796.767 809.697 797.821 809.154C798.873 808.611 801.194 810.249 803.001 812.811Z" fill="#C03033"/>
<path d="M787.515 795.273C789.322 797.835 789.932 800.353 788.877 800.895C787.823 801.438 785.504 799.8 783.697 797.239C781.89 794.677 781.28 792.159 782.334 791.617C783.389 791.074 785.707 792.712 787.515 795.273Z" fill="#C03033"/>
<path d="M777.475 827.864C778.822 830.428 778.466 832.949 776.684 833.489C774.903 834.032 772.365 832.391 771.018 829.826C769.671 827.262 770.027 824.741 771.809 824.201C773.594 823.658 776.132 825.299 777.475 827.864Z" fill="#C03033"/>
<path d="M757.958 811.466C759.304 814.031 758.949 816.551 757.167 817.091C755.385 817.634 752.847 815.993 751.501 813.428C750.154 810.864 750.51 808.343 752.291 807.803C754.073 807.26 756.611 808.901 757.958 811.466Z" fill="#C03033"/>
<path d="M699.618 793.049C702.813 796.665 707.949 801.595 713.539 804.035C722.868 808.153 745.145 824.686 754.102 837.549C758.466 843.827 761.36 858.188 762.586 863.795C767.436 867.829 773.239 869.907 780.229 874.109C778.946 870.578 776.897 861.76 772.73 852.092C762.802 829.169 729.398 806.471 718.958 802.016C708.489 797.561 700.072 786.603 700.044 786.575C699.958 787.695 699.872 788.79 699.815 789.882C699.729 790.978 699.672 792.041 699.618 793.049Z" fill="#DE373B"/>
<path d="M831.852 841.053C831.852 841.053 856.07 855.567 857.471 859.302C858.871 863.037 856.375 866.865 844.899 870.141C833.424 873.417 829.603 870.783 819.071 868.905C805.153 866.425 796.545 860.007 796.545 860.007C796.545 860.007 815.405 842.467 831.852 841.053Z" fill="#F1F2F4"/>
<path d="M715.714 786.035C720.183 787.58 724.63 790.69 728.559 794.088C733.186 798.103 737.048 802.515 739.272 805.229C742.731 809.466 779.225 791.904 765.504 781.823C765.504 781.823 757.754 782.772 750.255 778.647C743.159 774.766 737.992 768.145 729.235 765.125C728.695 764.947 728.136 764.773 727.574 764.617C720.164 762.542 714.952 763.977 711.674 768.389C709.292 771.565 702.914 781.602 715.714 786.035Z" fill="#BA2727"/>
<path d="M737.186 803.75C740.127 806.421 744.44 807.126 744.44 807.126C744.44 807.126 751.739 801.962 756.141 805.868C760.566 809.796 783.18 830.267 791.13 838.341C798.181 845.533 797.911 849.04 797.711 851.732C797.485 854.403 797.644 856.696 797.644 856.696C797.644 856.696 804.066 852.197 813.633 846.416C818.058 843.745 822.66 842.269 825.693 841.517C827.85 840.965 829.196 840.79 829.196 840.79C829.196 840.79 816.933 837.658 812.734 833.112C808.535 828.566 788.929 807.522 785.988 804.212C783.047 800.901 779.654 794.175 777.971 790.268C776.31 786.344 775.411 779.305 771.841 777.033C768.271 774.762 763.218 780.275 759.467 781.732C744.936 787.358 737.3 791.682 735.639 797.064C735.639 797.064 733.705 800.617 737.186 803.75Z" fill="#BA1A1D"/>
<path d="M737.186 803.75C740.127 806.421 744.44 807.126 744.44 807.126C744.44 807.126 741.544 799.647 744.44 795.41C747.359 791.173 752.412 789.41 759.241 786.565C766.07 783.741 771.749 779.882 772.222 779.792C772.718 779.704 774.871 782.462 776.084 787.866C777.298 793.292 783.361 803.794 789.402 809.837C795.443 815.902 811.927 833.817 813.522 835.252C815.094 836.688 821.113 840.369 825.693 841.517C827.85 840.965 829.196 840.79 829.196 840.79C829.196 840.79 816.933 837.658 812.734 833.112C808.535 828.566 788.929 807.522 785.988 804.212C783.047 800.901 779.654 794.175 777.971 790.268C776.31 786.344 775.411 779.305 771.841 777.033C768.271 774.762 763.218 780.275 759.467 781.732C744.936 787.358 737.3 791.682 735.639 797.064C735.639 797.064 733.705 800.617 737.186 803.75Z" fill="#DE373B"/>
<path d="M803.038 817.238L776.974 831.93L772.461 825.765L794.354 811.625L803.038 817.238Z" fill="#E9EAEB"/>
<path d="M786.378 800.892L756.894 815.846L753.174 808.648L782.017 793.622C783.129 793.042 784.507 793.435 785.13 794.508L787.22 798.103C787.798 799.098 787.413 800.368 786.378 800.892Z" fill="#E9EAEB"/>
<path d="M816.857 832.539L793.998 851.081C792.852 851.895 791.241 851.595 790.476 850.425L788.649 847.63C787.97 846.591 788.227 845.209 789.24 844.472L813.538 826.823L816.857 832.539Z" fill="#E9EAEB"/>
<path d="M816.024 832.953L778.155 832.545C776.751 832.529 775.452 831.824 774.693 830.663L772.435 827.21C771.863 826.336 772.511 825.188 773.565 825.2L811.752 825.609C812.855 825.621 813.868 826.205 814.414 827.147L816.92 831.456C817.314 832.127 816.815 832.963 816.024 832.953Z" fill="white"/>
<path d="M802.17 817.529L757.796 815.903C756.843 815.869 755.976 815.345 755.518 814.521L752.911 809.85C752.549 809.201 753.044 808.415 753.797 808.443L798.32 810.2C799.505 810.246 800.585 810.889 801.173 811.903L803.342 815.635C803.847 816.499 803.183 817.569 802.17 817.529Z" fill="white"/>
<path d="M764.611 778.672C764.611 778.672 768.572 777.249 771.837 792.977V792.98C767.74 795.566 757.401 800.664 757.417 800.642L757.42 800.639C757.401 800.589 754.543 790.961 753.399 788.836C751.834 785.922 749.687 785.601 749.687 785.601L764.611 778.672Z" fill="#F3F4F5"/>
<path d="M715.714 786.036C720.183 787.58 724.63 790.691 728.559 794.088C727.435 785.992 729.232 765.122 729.232 765.122C728.692 764.944 728.133 764.77 727.571 764.614C720.161 762.539 714.949 763.974 711.671 768.386C709.292 771.565 702.914 781.602 715.714 786.036Z" fill="#A5211F"/>
<path d="M745.15 682.395L637.935 621.59C628.915 616.476 624.338 609.69 624.033 602.542C624.008 601.943 623.982 577.698 624.017 577.096C624.509 568.444 631.189 583.077 643.709 575.975L738.238 522.365C762.044 508.865 798.052 507.398 818.665 519.089L925.88 579.894C934.434 584.746 939.09 570.356 939.798 577.096C939.9 578.06 939.824 599.768 939.77 600.742C939.274 609.394 932.626 618.407 920.109 625.505L825.58 679.116C801.771 692.622 765.763 694.089 745.15 682.395Z" fill="url(#paint4_linear_1556_1504)"/>
<path d="M745.15 658.751L637.936 597.946C617.322 586.255 619.904 565.832 643.71 552.331L738.239 498.721C762.044 485.221 798.053 483.754 818.666 495.445L925.881 556.25C946.497 567.941 943.909 588.364 920.106 601.864L825.577 655.475C801.772 668.975 765.764 670.441 745.15 658.751Z" fill="url(#paint5_linear_1556_1504)"/>
<path d="M937.844 568.047C940.916 578.396 934.481 590.133 918.959 598.935L824.43 652.545C800.627 666.045 764.616 667.512 744.003 655.818L636.788 595.013C630.902 591.675 626.974 587.612 624.823 583.216C626.462 588.739 630.759 593.871 637.934 597.939L745.149 658.745C765.766 670.435 801.771 668.969 825.576 655.469L920.105 601.858C937.114 592.217 943.225 579.051 937.844 568.047Z" fill="#FFF7F8"/>
<path d="M896.18 567.101C896.18 567.101 919.166 575.219 881.528 595.29C843.891 615.361 833.711 608.334 827.073 605.327C820.435 602.319 787.475 625.36 778.064 628.402C768.653 631.444 752.277 635.765 723.066 625.781C693.855 615.794 672.171 603.973 675.709 582.932C679.251 561.887 706.798 548.053 706.798 548.053C706.798 548.053 763.937 521.484 779.735 521.683C795.533 521.883 833.473 549.386 833.473 549.386L896.18 567.101Z" fill="#0191C8"/>
<path d="M825.822 494.701C825.822 496.52 825.905 498.355 826.092 500.214C828.296 524.45 844.549 551.931 864.981 565.856C866.458 566.857 867.954 567.796 869.469 568.651C879.258 574.205 851.575 596.971 858.495 595.193C858.537 595.193 858.578 595.171 858.619 595.152C858.807 595.112 859.14 594.968 859.575 594.765C860.033 594.562 860.49 594.338 860.947 594.07C870.155 589.374 901.621 571.181 903.68 569.428C909.581 564.386 913.116 555.769 913.116 544.212C913.116 517.037 893.579 483.922 869.469 470.263C857.832 463.648 845.048 462.98 837.231 466.921C836.307 467.386 799.558 486.764 797.033 490.967C797.033 490.967 797.033 490.967 797.011 490.989C794.124 495.924 825.822 486.839 825.822 494.701ZM830.434 502.398C848.932 512.913 864.044 537.76 865.165 558.932C846.648 548.396 831.558 523.549 830.434 502.398Z" fill="#D8D0BE"/>
<path d="M797.033 490.964C798.799 489.598 800.775 488.556 802.915 487.841C810.418 485.227 819.981 486.534 830.373 492.434C853.61 505.622 872.607 536.841 873.938 563.404C874.001 564.406 874.02 565.404 874.02 566.387C874.02 580.149 869.012 589.743 860.947 594.07C870.155 589.375 901.621 571.182 903.679 569.429C909.581 564.387 913.116 555.77 913.116 544.213C913.116 543.233 913.094 542.232 913.033 541.234C911.683 514.651 892.706 483.433 869.469 470.263C860.468 465.137 850.784 463.587 843.24 464.975C841.036 465.362 839 466.017 837.234 466.916C836.589 467.243 835.052 468.058 832.889 469.203C828.068 471.777 821.242 476.085 814.115 480.21C812.638 481.087 810.643 481.892 809.322 482.731C803.846 486.216 805.279 484.915 803.408 486.16C803.366 486.182 803.344 486.2 803.303 486.222C800.537 488.038 797.532 490.128 797.033 490.964Z" fill="url(#paint6_linear_1556_1504)"/>
<path d="M852.013 464.657L813.349 486.674C813 486.649 812.625 486.624 812.276 486.602C808.931 486.406 805.762 486.849 802.916 487.854C800.769 488.565 798.796 489.595 797.024 490.967C797.523 490.134 800.543 488.05 803.313 486.234C803.338 486.209 803.364 486.184 803.411 486.159C805.282 484.933 803.837 486.234 809.303 482.727C810.65 481.894 812.647 481.108 814.121 480.225C821.236 476.107 828.074 471.767 832.892 469.193C835.039 468.064 836.586 467.231 837.234 466.912C838.981 466.004 841.027 465.368 843.224 464.975C845.67 464.532 848.341 464.385 851.136 464.582C851.438 464.607 851.711 464.632 852.013 464.657Z" fill="#BEBEBE"/>
<path d="M891.277 489.223L852.239 511.437C847.071 505.135 841.23 499.594 834.989 495.354L874.027 473.14C880.268 477.383 886.109 482.924 891.277 489.223Z" fill="#F3F3F3"/>
<path d="M912.991 540.397L873.877 562.636C873.302 553.245 870.532 543.268 866.14 533.752L905.229 511.612C909.621 521.075 912.391 531.006 912.991 540.397Z" fill="#CACACA"/>
<path d="M910.794 558.787C909.146 563.249 906.725 566.805 903.679 569.429C901.609 571.195 870.155 589.388 860.947 594.071C865.715 591.522 869.434 587.107 871.632 581.076L910.794 558.787Z" fill="#9A9997"/>
<path d="M788.356 481.273C790.519 480.946 792.596 480.702 794.613 480.518C800.473 479.988 805.815 480.05 810.97 480.968C816.414 481.947 821.652 483.847 827.14 486.93C834.56 491.136 842.646 496.383 850.46 504.264C854.347 508.164 858.149 512.716 861.767 518.086C863.326 520.392 864.844 522.822 866.318 525.437C866.34 525.458 866.34 525.477 866.359 525.499L905.496 503.347C905.496 503.325 905.496 503.325 905.496 503.325C904 500.692 902.482 498.221 900.904 495.893C897.286 490.502 893.484 485.972 889.619 482.072C881.783 474.191 873.696 468.943 866.277 464.759C860.788 461.677 855.551 459.777 850.107 458.797C844.952 457.88 839.632 457.795 833.772 458.348C831.777 458.51 829.719 458.756 827.578 459.081C827.537 459.081 827.496 459.121 827.496 459.184L788.356 481.273Z" fill="#0E0911"/>
<path d="M794.612 480.515C800.472 479.985 805.815 480.047 810.97 480.965C816.414 481.944 821.651 483.844 827.139 486.927C834.559 491.133 842.645 496.38 850.459 504.261C854.346 508.161 858.148 512.713 861.766 518.083L900.903 495.891C897.285 490.499 893.483 485.969 889.618 482.069C881.782 474.188 873.696 468.94 866.276 464.756C860.788 461.674 855.55 459.774 850.106 458.794C844.951 457.877 839.631 457.792 833.771 458.345L794.612 480.515Z" fill="#211D24"/>
<path d="M810.971 480.964C816.415 481.944 821.652 483.844 827.141 486.926C834.56 491.132 842.647 496.38 850.46 504.261L889.619 482.069C881.783 474.187 873.697 468.94 866.277 464.756C860.789 461.673 855.551 459.773 850.107 458.793L810.971 480.964Z" fill="#29252B"/>
<path d="M847.036 491.994L828.852 481.683L856.99 465.727L875.173 476.042L847.036 491.994ZM832.594 481.683L847.036 489.873L871.429 476.039L856.987 467.846L832.594 481.683Z" fill="#66E2B2"/>
<path d="M830.805 482.598L830.64 480.766L852.749 478.838L856.084 466.548L857.889 467.023L854.22 480.554L830.805 482.598Z" fill="#66E2B2"/>
<path d="M873.299 475.111L854.399 475.383L854.427 477.223L873.326 476.952L873.299 475.111Z" fill="#66E2B2"/>
<path d="M846.991 479.909L846.497 490.625L848.369 490.708L848.863 479.992L846.991 479.909Z" fill="#66E2B2"/>
<path d="M865.873 472.713C862.096 474.744 861.871 478.638 865.368 481.408C868.868 484.179 874.763 484.781 878.542 482.75C882.319 480.719 882.544 476.825 879.047 474.054C875.547 471.284 869.649 470.682 865.873 472.713Z" fill="#29252B"/>
<path d="M867.497 473.997C864.689 475.507 864.521 478.402 867.122 480.465C869.723 482.527 874.11 482.973 876.921 481.463C879.731 479.953 879.897 477.058 877.295 474.995C874.691 472.936 870.305 472.487 867.497 473.997Z" fill="#66E2B2"/>
<path d="M870.993 475.236L871.898 478.409L872.756 477.897L871.892 477.114L873.534 476.131L874.398 476.914L875.135 476.474L876.059 477.314L875.322 477.754L876.199 478.546L874.557 479.529L873.68 478.733L871.019 480.328L870.193 479.579L869.3 476.25L870.993 475.236Z" fill="#211D24"/>
<path d="M910.515 525.858L871.397 548.053L866.366 525.502L905.509 503.334L910.515 525.858Z" fill="#DBDBDB"/>
<path d="M786.714 516.879C786.714 544.054 806.25 577.17 830.361 590.851C841.087 596.916 850.898 598.139 858.483 595.2C858.524 595.2 858.565 595.178 858.606 595.16C858.94 595.038 859.251 594.913 859.562 594.773C860.02 594.57 860.477 594.342 860.935 594.077C868.999 589.75 874.008 580.152 874.008 566.39C874.008 565.389 873.989 564.369 873.925 563.348C873.925 563.326 873.925 563.267 873.903 563.186C873.652 558.244 872.782 553.183 871.387 548.079C871.387 548.079 871.387 548.079 871.387 548.057C871.387 548.057 871.406 548.035 871.387 548.017C871.387 547.995 871.387 547.995 871.387 547.976C871.159 546.61 868.04 531.297 866.356 525.497C866.334 525.475 866.334 525.456 866.315 525.434C854.404 504.303 839.794 494.094 827.137 486.928C814.645 479.883 803.379 479.046 788.353 481.271C788 488.909 787.749 494.625 787.543 498.911L787.479 500.322C787.438 501.364 787.397 502.321 787.355 503.161L787.292 504.325C787.209 506.243 787.146 507.672 787.104 508.714L787.041 509.735C786.958 511.775 786.958 511.775 786.958 511.775C786.796 513.41 786.714 515.104 786.714 516.879ZM830.424 502.406C837.116 506.225 843.393 511.9 848.694 518.617C853.995 525.334 858.359 533.091 861.268 540.994C863.472 546.996 864.844 553.102 865.156 558.94C854.452 552.856 844.892 541.973 838.53 529.784C833.855 520.901 830.901 511.326 830.424 502.406Z" fill="#828282"/>
<path d="M786.965 511.775L790.198 485.146C790.198 485.146 806.111 478.572 831.053 492.291C841.611 498.091 859.051 517.319 862.948 527.36C869.933 545.349 873.573 561.062 873.906 563.183C873.655 558.241 872.785 553.18 871.391 548.076C871.391 548.076 871.391 548.076 871.391 548.054C871.391 548.054 871.41 548.032 871.391 548.014C871.391 547.992 871.391 547.992 871.391 547.973C871.162 546.607 868.043 531.294 866.36 525.494C866.337 525.472 866.337 525.453 866.318 525.431C854.408 504.3 839.797 494.091 827.14 486.925C814.648 479.88 803.383 479.043 788.356 481.268C788.004 488.906 787.753 494.622 787.546 498.908L787.483 500.319C787.441 501.361 787.4 502.319 787.359 503.158L787.295 504.322C787.213 506.24 787.149 507.669 787.108 508.711L787.044 509.732C786.965 511.775 786.965 511.775 786.965 511.775Z" fill="#C5C5C5"/>
<path d="M856.751 595.199C856.792 595.199 856.834 595.177 856.875 595.159C857.208 595.037 857.52 594.912 857.831 594.772C858.288 594.569 858.746 594.341 859.203 594.076C867.267 589.749 872.276 580.152 872.276 566.389C872.276 565.388 872.254 564.368 872.194 563.347C872.194 563.326 872.194 563.266 872.171 563.185C871.924 558.243 871.05 553.182 869.656 548.078C869.656 548.078 869.656 548.078 869.656 548.056C869.656 548.056 869.678 548.034 869.656 548.016C869.656 547.994 869.656 547.994 869.656 547.975C869.427 546.609 866.308 531.296 864.625 525.496C864.603 525.474 864.603 525.455 864.584 525.433C852.673 504.302 838.062 494.093 825.405 486.927C817.09 482.237 809.315 480.309 800.619 480.194C810.026 480.066 818.278 481.928 827.14 486.927C839.797 494.093 854.41 504.302 866.318 525.433C866.34 525.455 866.34 525.474 866.359 525.496C868.042 531.296 871.161 546.606 871.39 547.975C871.39 547.997 871.39 547.997 871.39 548.016C871.409 548.038 871.39 548.056 871.39 548.056C871.39 548.078 871.39 548.078 871.39 548.078C872.781 553.182 873.655 558.246 873.906 563.185C873.928 563.266 873.928 563.329 873.928 563.347C873.991 564.368 874.01 565.388 874.01 566.389C874.01 580.152 869.002 589.745 860.937 594.076C860.48 594.341 860.023 594.566 859.565 594.772C859.254 594.915 858.943 595.037 858.609 595.159C858.568 595.18 858.527 595.199 858.485 595.199C855.522 596.347 852.209 596.837 848.642 596.675C851.542 596.625 854.274 596.157 856.751 595.199Z" fill="#C5C5C5"/>
<path d="M865.228 561.407C865.228 562.487 865.202 563.542 865.104 564.571C865.079 565.011 865.028 565.454 864.98 565.869C863.109 583.179 849.928 590.242 833.479 582.517C832.456 582.052 831.43 581.513 830.385 580.923C812.462 570.749 797.712 547.159 795.765 526.467C795.616 524.922 795.54 523.403 795.54 521.88C795.54 501.8 808.87 492.824 826.091 500.231C827.489 500.842 828.937 501.554 830.385 502.365C830.411 502.39 830.436 502.39 830.436 502.415C831.186 516.661 838.297 532.573 848.509 544.663C853.451 550.547 859.142 555.501 865.183 558.933C865.228 559.763 865.228 560.599 865.228 561.407Z" fill="url(#paint7_linear_1556_1504)"/>
<path d="M865.102 564.572C865.076 565.012 865.025 565.455 864.978 565.87C863.107 583.179 849.926 590.243 833.477 582.518L865.102 564.572Z" fill="#5E5D5C"/>
<path d="M795.527 521.883C795.527 523.393 795.61 524.925 795.756 526.476C808.435 527.905 827.972 531.171 838.447 538.46C842.458 541.255 845.784 543.258 848.506 544.665C838.301 532.579 831.192 516.654 830.443 502.402C830.421 502.38 830.402 502.38 830.379 502.362C828.925 501.544 827.492 500.83 826.098 500.218C808.87 492.827 795.527 501.812 795.527 521.883Z" fill="#5E5D5C"/>
<path d="M734.323 521.448C734.323 523.267 734.406 525.102 734.593 526.961C736.797 551.197 753.05 578.678 773.482 592.603C774.959 593.604 776.455 594.543 777.97 595.398C787.759 600.952 760.075 623.718 766.996 621.94C767.038 621.94 767.079 621.918 767.12 621.899C767.308 621.859 767.641 621.715 768.076 621.512C768.534 621.31 768.991 621.085 769.448 620.817C778.656 616.121 810.122 597.928 812.181 596.175C818.085 591.133 821.617 582.516 821.617 570.959C821.617 543.784 802.08 510.669 777.97 497.01C766.329 490.395 753.548 489.728 745.732 493.668C744.808 494.133 708.059 513.511 705.534 517.714C705.534 517.714 705.534 517.714 705.512 517.736C702.625 522.675 734.323 513.589 734.323 521.448ZM738.938 529.145C757.436 539.66 772.548 564.507 773.669 585.679C755.149 575.146 740.059 550.299 738.938 529.145Z" fill="#D8D0BE"/>
<path d="M695.224 543.612C695.224 569.296 712.661 600.271 734.923 615.153C736.231 616.011 737.54 616.829 738.871 617.584C749.596 623.649 759.408 624.872 766.992 621.933C767.034 621.933 767.075 621.911 767.116 621.893C767.45 621.771 767.761 621.646 768.072 621.506C768.53 621.303 768.987 621.078 769.444 620.81C777.509 616.483 782.518 606.885 782.518 593.123C782.518 570.684 769.193 544.224 750.988 527.972C747.141 524.543 743.069 521.56 738.871 519.173C725.505 511.598 713.534 511.579 705.53 517.704C705.53 517.704 705.53 517.704 705.508 517.726C699.092 522.624 695.224 531.504 695.224 543.612ZM773.666 585.673C770.445 583.835 767.307 581.57 764.334 578.934C763.959 578.606 763.584 578.26 763.213 577.913C761.323 576.179 759.493 574.3 757.769 572.297C757.372 571.848 756.978 571.38 756.584 570.909C754.567 568.479 752.677 565.908 750.93 563.212C750.556 562.601 750.162 561.986 749.787 561.374C749.393 560.741 749.018 560.089 748.644 559.456C748.602 559.393 748.561 559.312 748.52 559.25C747.856 558.086 747.211 556.922 746.608 555.718C746.585 555.655 746.544 555.596 746.525 555.534C746.173 554.882 745.839 554.208 745.547 553.534C744.902 552.208 744.321 550.86 743.759 549.49C743.466 548.795 743.219 548.121 742.968 547.45C742.72 546.776 742.469 546.08 742.24 545.409C741.99 544.735 741.783 544.043 741.574 543.369C741.367 542.695 741.157 542.021 740.992 541.347C740.471 539.528 740.058 537.712 739.744 535.897V535.875C739.722 535.794 739.703 535.712 739.681 535.631C739.681 535.61 739.681 535.591 739.681 535.591C739.681 535.569 739.681 535.569 739.681 535.55C739.598 535.163 739.534 534.773 739.493 534.387C739.306 533.285 739.182 532.181 739.077 531.101C739.014 530.449 738.972 529.794 738.931 529.142C740.532 530.059 742.11 531.082 743.67 532.184C759.948 543.94 772.649 566.335 773.666 585.673Z" fill="#828282"/>
<path d="M737.202 530.166C737.856 530.537 738.495 530.968 739.14 531.373C741.074 551.26 754.744 573.755 771.727 584.469C771.8 585.215 771.895 585.964 771.934 586.7C753.416 576.167 738.327 551.319 737.202 530.166Z" fill="#E0E0E0"/>
<path d="M773.716 588.15C773.716 589.695 773.64 591.192 773.466 592.59C773.44 592.858 773.415 593.105 773.367 593.373C771.271 609.457 759.214 616.299 743.914 610.071C743.467 609.925 743.041 609.728 742.59 609.532H742.539C741.342 608.992 740.119 608.38 738.871 607.669C719.626 596.733 704.025 570.301 704.025 548.626C704.025 528.546 717.355 519.57 734.602 526.952C735.974 527.567 737.422 528.275 738.871 529.111C738.896 529.111 738.922 529.111 738.947 529.136C738.972 529.797 739.023 530.437 739.071 531.098C739.195 532.178 739.319 533.279 739.493 534.384C739.544 534.777 739.592 535.167 739.693 535.56C739.693 535.56 739.693 535.56 739.693 535.585C739.693 535.585 739.693 535.61 739.693 535.635C739.693 535.707 739.719 535.806 739.744 535.881V535.906C740.068 537.722 740.468 539.535 740.992 541.351C741.167 542.037 741.367 542.698 741.567 543.385C741.793 544.046 741.993 544.733 742.241 545.419C742.466 546.081 742.714 546.792 742.965 547.453C743.216 548.14 743.489 548.826 743.762 549.488C744.311 550.86 744.912 552.208 745.534 553.534C745.858 554.221 746.182 554.857 746.506 555.543C746.532 555.593 746.582 555.665 746.605 555.715C747.205 556.916 747.853 558.092 748.501 559.247C748.552 559.322 748.603 559.393 748.625 559.468C749 560.105 749.374 560.744 749.775 561.381C750.149 561.992 750.549 562.607 750.921 563.219C752.668 565.914 754.564 568.488 756.562 570.916C756.962 571.38 757.359 571.848 757.759 572.313C759.481 574.301 761.304 576.188 763.2 577.904C763.575 578.273 763.95 578.616 764.325 578.934C767.294 581.583 770.439 583.839 773.659 585.676C773.716 586.506 773.716 587.317 773.716 588.15Z" fill="url(#paint8_linear_1556_1504)"/>
<path d="M773.367 593.374C771.271 609.457 759.214 616.299 743.915 610.072L773.367 593.374Z" fill="#5E5D5C"/>
<path d="M704.019 548.615C704.019 550.125 704.101 551.657 704.247 553.208C716.926 554.636 736.463 557.903 746.938 565.191C750.95 567.987 754.275 569.99 756.997 571.397C746.792 559.31 739.684 543.386 738.934 529.134C738.912 529.112 738.893 529.112 738.871 529.093C737.416 528.276 735.98 527.561 734.589 526.95C717.362 519.562 704.019 528.544 704.019 548.615Z" fill="#5E5D5C"/>
<path d="M821.62 570.96C821.62 576.526 820.797 581.405 819.298 585.524C817.65 589.985 815.229 593.542 812.183 596.166C810.112 597.932 778.659 616.125 769.451 620.808C774.219 618.259 777.938 613.844 780.136 607.813C781.708 603.67 782.531 598.74 782.531 593.124C782.531 592.144 782.505 591.137 782.432 590.132C782.432 589.886 782.407 589.617 782.381 589.371C781.806 579.98 779.037 570.002 774.644 560.486C774.393 559.946 774.146 559.406 773.895 558.867C771.347 553.594 768.352 548.496 764.935 543.713C763.588 541.8 762.187 539.963 760.742 538.172C755.575 531.87 749.734 526.328 743.492 522.088C741.971 521.034 740.421 520.054 738.874 519.171C736.829 517.995 734.831 517.037 732.833 516.229C729.012 514.635 725.318 513.702 721.85 513.409C721.501 513.384 721.126 513.359 720.776 513.337C717.432 513.14 714.262 513.583 711.416 514.588C709.269 515.299 707.297 516.329 705.524 517.702C706.023 516.869 709.044 514.785 711.813 512.969C711.839 512.944 711.864 512.919 711.912 512.894C713.782 511.668 712.337 512.969 717.803 509.462C719.15 508.629 721.148 507.843 722.622 506.96C729.736 502.841 736.575 498.501 741.393 495.927C743.54 494.801 745.087 493.965 745.735 493.647C747.482 492.739 749.53 492.102 751.725 491.709C754.171 491.266 756.842 491.119 759.637 491.316C759.935 491.341 760.212 491.366 760.51 491.391C764.153 491.709 768.025 492.592 771.843 494.09C773.914 494.898 775.937 495.856 777.957 497.007C779.504 497.89 781.028 498.823 782.524 499.874C788.765 504.117 794.606 509.658 799.771 515.961C801.245 517.752 802.668 519.639 804.014 521.552C807.41 526.31 810.455 531.433 812.949 536.681C813.225 537.22 813.473 537.785 813.724 538.35C818.116 547.816 820.886 557.744 821.486 567.135C821.512 567.403 821.512 567.699 821.537 567.968C821.594 568.975 821.62 569.98 821.62 570.96Z" fill="url(#paint9_linear_1556_1504)"/>
<path d="M819.295 585.534C817.646 589.995 815.226 593.552 812.18 596.176C810.109 597.942 778.659 616.134 769.448 620.818C774.215 618.269 777.934 613.854 780.132 607.823L819.295 585.534Z" fill="#9A9997"/>
<path d="M760.516 491.394L721.853 513.412C721.503 513.387 721.129 513.362 720.779 513.34C717.435 513.143 714.265 513.586 711.419 514.591C709.272 515.302 707.3 516.332 705.527 517.705C706.026 516.872 709.046 514.787 711.816 512.972C711.842 512.947 711.867 512.922 711.915 512.897C713.785 511.671 712.34 512.972 717.806 509.465C719.153 508.632 721.151 507.845 722.625 506.963C729.739 502.844 736.578 498.504 741.396 495.93C743.543 494.804 745.09 493.968 745.738 493.65C747.485 492.742 749.533 492.105 751.728 491.712C754.174 491.269 756.845 491.122 759.64 491.319C759.941 491.344 760.218 491.369 760.516 491.394Z" fill="#BEBEBE"/>
<path d="M799.779 515.964L760.741 538.178C755.573 531.876 749.732 526.335 743.491 522.095L782.529 499.88C788.771 504.12 794.612 509.662 799.779 515.964Z" fill="#F3F3F3"/>
<path d="M821.495 567.135L782.38 589.374C781.805 579.983 779.036 570.005 774.643 560.49L813.732 538.35C818.125 547.813 820.894 557.744 821.495 567.135Z" fill="#9A9997"/>
<path d="M780.789 594.153C780.789 566.978 761.252 533.882 737.142 520.204C725.352 513.521 714.652 512.725 706.8 516.834C714.772 511.621 726.194 511.995 738.873 519.183C762.984 532.861 782.52 565.958 782.52 593.133C782.52 606.895 777.511 616.489 769.447 620.82C769.393 620.851 769.336 620.873 769.279 620.904C776.422 616.212 780.789 606.998 780.789 594.153Z" fill="#C5C5C5"/>
<path d="M813.421 572.594L790.607 585.539C788.711 586.594 786.364 585.417 786.113 583.308C785.039 574.507 782.168 565.312 777.95 556.558C775.428 551.285 772.407 546.187 769.015 541.404C761.726 531.155 752.69 522.403 742.929 516.859C740.906 515.705 738.937 514.7 737.063 513.817C733.067 511.979 729.399 510.8 725.956 510.41C724.009 510.142 722.113 510.142 720.29 510.41C719.067 510.582 715.621 510.85 711.428 513.084C713.299 511.833 716.094 510.045 718.543 508.572C719.89 507.789 721.29 507.15 722.761 506.267C729.875 502.148 737.663 497.905 742.478 495.331C746.82 493.884 752.687 492.854 756.857 492.879C757.632 492.879 758.305 492.929 758.928 493.001C762.247 493.394 765.741 494.252 769.212 495.599C771.261 496.408 773.306 497.365 775.326 498.517C785.112 504.083 794.123 512.787 801.387 523.037C804.782 527.82 807.777 532.918 810.325 538.19C814.193 546.234 816.94 554.642 818.189 562.782C818.789 566.71 816.918 570.61 813.421 572.594Z" fill="#0E0911"/>
<path d="M794.199 550.808C791.795 553.005 791.442 557.279 793.418 560.356C795.393 563.432 798.944 564.146 801.349 561.953C803.756 559.756 804.106 555.482 802.13 552.406C800.158 549.33 796.607 548.615 794.199 550.808Z" fill="#51D8A5"/>
<path d="M810.329 538.196L777.954 556.561C775.432 551.288 772.412 546.19 769.02 541.407C761.73 531.158 752.694 522.406 742.934 516.862C740.911 515.708 738.941 514.703 737.068 513.82C733.072 511.982 729.403 510.803 725.96 510.413L756.861 492.882C757.636 492.882 758.31 492.932 758.932 493.004C762.251 493.397 765.745 494.255 769.217 495.602C771.265 496.411 773.311 497.368 775.331 498.52C785.117 504.086 794.127 512.79 801.391 523.04C804.787 527.822 807.782 532.924 810.329 538.196Z" fill="#211D24"/>
<path d="M801.393 523.043L769.018 541.407C761.729 531.158 752.693 522.406 742.932 516.862C740.909 515.708 738.94 514.703 737.066 513.82L769.215 495.603C771.264 496.411 773.309 497.368 775.329 498.52C785.118 504.089 794.129 512.794 801.393 523.043Z" fill="#29252B"/>
<path d="M755.459 517.702L761.971 523.483L761.1 523.976L755.272 518.803L753.478 519.823L752.792 519.215L755.459 517.702Z" fill="#66E2B2"/>
<path d="M762.733 514.465C761.065 515.411 761.402 516.911 763.333 518.437C762.879 517.545 763.272 516.687 764.416 516.041C765.928 515.183 767.652 515.354 768.917 516.475C770.238 517.645 770.022 518.958 768.443 519.853C766.573 520.917 764.292 520.559 762.294 518.783C760.214 516.936 760.077 515.039 762.037 513.929C762.745 513.526 763.768 513.217 764.68 513.105L764.908 513.813C764.146 513.882 763.333 514.128 762.733 514.465ZM764.394 519.095C765.026 519.654 766.407 520.059 767.738 519.304C768.824 518.687 769.021 517.751 768.084 516.921C767.201 516.134 765.956 516.047 764.87 516.662C763.638 517.361 763.616 518.4 764.394 519.095Z" fill="#66E2B2"/>
<path d="M769.968 514.353C770.238 514.59 770.212 514.902 769.917 515.068C769.612 515.242 769.18 515.189 768.913 514.952C768.643 514.712 768.665 514.403 768.97 514.228C769.266 514.06 769.698 514.113 769.968 514.353ZM772.728 516.802C772.998 517.04 772.975 517.348 772.68 517.517C772.375 517.689 771.94 517.639 771.673 517.402C771.406 517.161 771.429 516.849 771.734 516.678C772.026 516.509 772.461 516.562 772.728 516.802Z" fill="#66E2B2"/>
<path d="M773.529 509.872C772.891 509.305 771.896 509.308 770.893 509.879C770.175 510.287 769.667 511.024 769.527 511.816L768.581 511.529C768.784 510.603 769.397 509.754 770.331 509.224C771.779 508.4 773.361 508.412 774.336 509.28C774.952 509.823 775.133 510.812 775.038 511.947L774.714 515.254L779.046 512.799L779.735 513.411L774.295 516.496L773.691 515.96L774.034 511.925C774.126 511.036 773.958 510.253 773.529 509.872Z" fill="#66E2B2"/>
<path d="M783.334 506.622C785.443 508.494 785.602 510.11 783.795 511.134C781.978 512.163 779.793 511.698 777.684 509.826C775.584 507.96 775.426 506.347 777.245 505.318C779.053 504.295 781.235 504.756 783.334 506.622ZM778.557 509.333C780.33 510.909 781.899 511.333 783.194 510.597C784.468 509.873 784.239 508.691 782.467 507.115C780.692 505.536 779.135 505.137 777.862 505.861C776.563 506.597 776.779 507.755 778.557 509.333Z" fill="#66E2B2"/>
<path d="M779.932 524.741C777.032 526.369 776.613 530.045 779.002 532.949C781.387 535.857 785.675 536.893 788.578 535.264C791.481 533.636 791.897 529.96 789.508 527.056C787.12 524.151 782.835 523.115 779.932 524.741Z" fill="#66E2B2"/>
<path d="M783.051 526.272L783.534 530.459L784.439 529.941L783.692 528.809L785.433 527.819L786.186 528.955L786.964 528.512L787.764 529.726L786.983 530.169L787.742 531.32L786.002 532.309L785.242 531.155L782.419 532.758L781.698 531.673L781.25 527.292L783.051 526.272Z" fill="#211D24"/>
<defs>
<linearGradient id="paint0_linear_1556_1504" x1="720.526" y1="1190.19" x2="865.647" y2="1191.59" gradientUnits="userSpaceOnUse">
<stop stop-color="#3D9ABE"/>
<stop offset="0.0652" stop-color="#3D98BC"/>
<stop offset="0.4437" stop-color="#3C96BA"/>
<stop offset="0.6145" stop-color="#48B7E2"/>
</linearGradient>
<linearGradient id="paint1_linear_1556_1504" x1="734.036" y1="1087.36" x2="818.887" y2="1236.97" gradientUnits="userSpaceOnUse">
<stop stop-color="#4DC4FF"/>
<stop offset="0.9162" stop-color="#75CFFF"/>
</linearGradient>
<linearGradient id="paint2_linear_1556_1504" x1="728.526" y1="864.695" x2="873.647" y2="866.096" gradientUnits="userSpaceOnUse">
<stop stop-color="#3D9ABE"/>
<stop offset="0.0652" stop-color="#3D98BC"/>
<stop offset="0.4437" stop-color="#3C96BA"/>
<stop offset="0.6145" stop-color="#48B7E2"/>
</linearGradient>
<linearGradient id="paint3_linear_1556_1504" x1="742.037" y1="761.861" x2="826.887" y2="911.474" gradientUnits="userSpaceOnUse">
<stop stop-color="#4DC4FF"/>
<stop offset="0.9162" stop-color="#75CFFF"/>
</linearGradient>
<linearGradient id="paint4_linear_1556_1504" x1="721.525" y1="600.182" x2="866.646" y2="601.583" gradientUnits="userSpaceOnUse">
<stop stop-color="#3D9ABE"/>
<stop offset="0.0652" stop-color="#3D98BC"/>
<stop offset="0.4437" stop-color="#3C96BA"/>
<stop offset="0.6145" stop-color="#48B7E2"/>
</linearGradient>
<linearGradient id="paint5_linear_1556_1504" x1="735.036" y1="497.347" x2="819.887" y2="646.96" gradientUnits="userSpaceOnUse">
<stop stop-color="#4DC4FF"/>
<stop offset="0.9162" stop-color="#75CFFF"/>
</linearGradient>
<linearGradient id="paint6_linear_1556_1504" x1="832.655" y1="469.297" x2="893.194" y2="576.042" gradientUnits="userSpaceOnUse">
<stop offset="0.1541" stop-color="#CACACA"/>
<stop offset="0.3216" stop-color="white"/>
<stop offset="0.4514" stop-color="#CCCCCC"/>
<stop offset="0.6081" stop-color="#949391"/>
<stop offset="0.7432" stop-color="#B2B2B2"/>
<stop offset="0.8263" stop-color="#B7B7B7"/>
<stop offset="0.919" stop-color="#C4C4C4"/>
<stop offset="1" stop-color="#D6D6D6"/>
</linearGradient>
<linearGradient id="paint7_linear_1556_1504" x1="802.767" y1="501.567" x2="850.601" y2="585.91" gradientUnits="userSpaceOnUse">
<stop offset="0.0911" stop-color="#F8F8F8"/>
<stop offset="0.5649" stop-color="#7E7D7C"/>
<stop offset="0.715" stop-color="#797877"/>
<stop offset="0.8825" stop-color="#6C6B6A"/>
<stop offset="1" stop-color="#5E5D5C"/>
</linearGradient>
<linearGradient id="paint8_linear_1556_1504" x1="711.261" y1="528.306" x2="759.091" y2="612.642" gradientUnits="userSpaceOnUse">
<stop offset="0.0911" stop-color="#F8F8F8"/>
<stop offset="0.5649" stop-color="#7E7D7C"/>
<stop offset="0.715" stop-color="#797877"/>
<stop offset="0.8825" stop-color="#6C6B6A"/>
<stop offset="1" stop-color="#5E5D5C"/>
</linearGradient>
<linearGradient id="paint9_linear_1556_1504" x1="741.145" y1="496.041" x2="801.688" y2="602.792" gradientUnits="userSpaceOnUse">
<stop offset="0.1541" stop-color="#CACACA"/>
<stop offset="0.3216" stop-color="white"/>
<stop offset="0.4514" stop-color="#CCCCCC"/>
<stop offset="0.6081" stop-color="#949391"/>
<stop offset="0.7432" stop-color="#B2B2B2"/>
<stop offset="0.8263" stop-color="#B7B7B7"/>
<stop offset="0.919" stop-color="#C4C4C4"/>
<stop offset="1" stop-color="#D6D6D6"/>
</linearGradient>
</defs>
</svg>
