<svg width="1642" height="1675" viewBox="0 0 1642 1675" fill="none" xmlns="http://www.w3.org/2000/svg">
<path d="M1047.05 1388.47H616.076C573.684 1388.47 539 1353.78 539 1311.39V364.077C539 321.685 573.685 287 616.076 287H1047.05C1089.45 287 1124.13 321.685 1124.13 364.077V1311.39C1124.13 1353.78 1089.45 1388.47 1047.05 1388.47Z" fill="#2B478B"/>
<path d="M1095.13 371.373V1296.73C1095.13 1328.12 1069.63 1353.8 1038.48 1353.8H624.651C593.498 1353.8 568.006 1328.12 568.006 1296.73V371.373C568.006 339.98 593.498 314.302 624.651 314.302H1038.48C1069.63 314.301 1095.13 339.979 1095.13 371.373Z" fill="#090909"/>
<path d="M1038.48 314.301L629.771 1353.8H624.651C593.498 1353.8 568.006 1328.12 568.006 1296.73V371.373C568.006 339.98 593.498 314.302 624.651 314.302L1038.48 314.301Z" fill="black"/>
<path d="M918.047 348.714H745.09C731.002 348.714 719.475 337.187 719.475 323.098V319.071C719.475 304.982 731.002 293.455 745.09 293.455H918.047C932.135 293.455 943.661 304.982 943.661 319.071V323.098C943.662 337.186 932.135 348.714 918.047 348.714Z" fill="#2B478B"/>
<rect x="621" y="466" width="463" height="47" rx="23.5" fill="#292929"/>
<rect x="624" y="533" width="380" height="47" rx="23.5" fill="#292929"/>
<rect x="627" y="600" width="130" height="47" rx="23.5" fill="#292929"/>
<rect x="772" y="600" width="130" height="47" rx="23.5" fill="#292929"/>
<path d="M471.756 716.236L367.545 648.732C358.777 643.055 354.328 635.518 354.032 627.587C354.007 626.922 353.983 600.005 354.017 599.337C354.495 589.732 360.987 605.977 373.157 598.093L465.038 538.577C488.177 523.589 523.176 521.961 543.212 534.94L647.423 602.444C655.737 607.83 660.263 591.855 660.951 599.337C661.05 600.407 660.976 624.507 660.924 625.588C660.445 635.193 653.981 645.199 641.814 653.079L549.933 712.596C526.794 727.59 491.795 729.218 471.756 716.236Z" fill="url(#paint0_linear_1556_1432)"/>
<path d="M471.755 689.985L367.544 622.481C347.508 609.502 350.021 586.829 373.156 571.842L465.037 512.325C488.176 497.338 523.175 495.71 543.211 508.688L647.422 576.192C667.458 589.171 664.945 611.844 641.81 626.831L549.929 686.348C526.794 701.339 491.794 702.967 471.755 689.985Z" fill="url(#paint1_linear_1556_1432)"/>
<path d="M659.056 589.292C662.041 600.781 655.787 613.812 640.699 623.583L548.818 683.099C525.683 698.087 490.68 699.715 470.644 686.733L366.433 619.229C360.713 615.523 356.894 611.013 354.804 606.132C356.397 612.263 360.574 617.961 367.548 622.478L471.759 689.982C491.795 702.96 526.794 701.332 549.933 686.345L641.814 626.828C658.343 616.125 664.283 601.508 659.056 589.292Z" fill="#FFF7F8"/>
<path d="M516.41 658.853C516.41 658.853 491.441 658.492 475.745 658.887C460.05 659.286 429.867 636.609 428.66 635.982C427.452 635.355 423.025 627.506 432.685 620.818C442.345 614.133 442.345 614.133 442.345 614.133C442.345 614.133 423.831 601.941 419.404 598.328C414.977 594.715 456.83 570.449 456.83 570.449L522.18 559.753L516.41 658.853Z" fill="#0191C8"/>
<path d="M563.463 498.813V527.766H563.438C563.543 530.963 561.916 534.015 558.44 536.263L476.006 589.659C468.547 594.491 455.417 593.878 446.801 588.301L430.883 577.993C425.82 574.706 422.684 569.933 422.461 565.569L422.437 565.555V537.157L422.566 537.129L484.295 520.337L509.076 504.29C514.725 500.625 524.876 500.902 533.205 503.69C534.922 504.276 536.564 504.948 538.074 505.72L563.463 498.813Z" fill="#BAC3E2"/>
<path d="M563.463 498.813V527.766H563.438C563.543 530.963 561.916 534.015 558.44 536.263L476.006 589.659C468.547 594.491 455.417 593.878 446.801 588.301L430.883 577.993C425.82 574.706 422.684 569.933 422.461 565.569L422.437 565.555V537.157L422.566 537.129C422.801 546.955 423.465 561.6 425.351 565.995C428.265 572.815 440.676 580.2 453.04 585.558C465.404 590.903 471.554 562.331 471.554 562.331C471.554 562.331 509.177 526.44 533.202 503.69C534.918 504.276 536.561 504.948 538.07 505.72L563.463 498.813Z" fill="#9BA5B8"/>
<path d="M476.002 560.273L558.436 506.873C565.888 502.045 562.826 492.159 554.219 486.586L540.422 477.65C531.815 472.077 516.527 470.061 509.075 474.889L426.64 528.289C419.188 533.117 422.281 543.03 430.888 548.607L446.806 558.918C455.41 564.488 468.549 565.098 476.002 560.273Z" fill="#F8F9FB"/>
<path d="M553.648 506.009L474.665 557.175C469.33 560.621 460.949 561.162 453.62 558.986C451.134 558.256 448.766 557.206 446.683 555.862L433.46 547.307C425.22 541.962 424.31 533.816 431.457 529.185L510.439 478.023C514.839 475.176 521.294 474.299 527.527 475.293C531.432 475.92 535.245 477.264 538.419 479.325L551.641 487.88C559.884 493.221 560.794 501.382 553.648 506.009Z" fill="#CBD6D9"/>
<path d="M553.648 506.011L474.665 557.177C469.331 560.623 460.949 561.163 453.62 558.988C471.764 547.118 507.149 523.901 517.352 516.572C528.96 508.221 528.13 483.31 527.531 475.295C531.436 475.922 535.249 477.266 538.422 479.327L551.645 487.882C559.884 493.223 560.795 501.383 553.648 506.011Z" fill="#B1BFC7"/>
<path d="M614.272 531.957V594.227L614.259 594.241C614.364 597.424 612.737 600.49 609.249 602.738L527.611 655.625C526.635 656.252 525.567 656.792 524.41 657.246C524.41 657.246 524.385 657.246 524.345 657.26C516.732 660.211 505.877 659.099 498.406 654.267L482.489 643.959C477.426 640.672 474.289 635.885 474.082 631.517H474.042V569.787L487.734 566.095L614.272 531.957Z" fill="#BAC3E2"/>
<path d="M524.341 657.263C516.728 660.214 505.873 659.102 498.402 654.27L482.485 643.962C477.422 640.675 474.285 635.889 474.078 631.521H474.038V569.791L487.73 566.099L510.492 588.744C510.492 588.744 510.492 642.608 510.492 649.31C510.492 658.887 523.415 657.512 524.341 657.263Z" fill="#9BA5B8"/>
<path d="M613.87 589.105V532.779L521.371 569.251V642.138L521.408 642.145C521.624 646.513 521.609 656.485 527.206 652.345L608.853 599.458C614.274 595.766 613.87 589.105 613.87 589.105Z" fill="#E9ECF3"/>
<path d="M527.606 592.908L610.04 539.509C617.493 534.68 614.43 524.795 605.823 519.222L592.027 510.285C583.42 504.712 568.132 502.697 560.676 507.525L478.242 560.925C470.789 565.753 473.883 575.666 482.49 581.243L498.408 591.554C507.012 597.127 520.154 597.737 527.606 592.908Z" fill="#F8F9FB"/>
<path d="M605.249 538.65L526.273 589.809C522.296 592.386 516.668 593.328 511.04 592.771C506.499 592.327 501.98 590.886 498.303 588.507L485.071 579.948C476.825 574.603 475.911 566.457 483.07 561.833L562.047 510.646C569.182 506.022 581.774 506.629 590.02 511.949L603.252 520.535C603.696 520.812 604.116 521.117 604.511 521.422C611.569 526.711 612.013 534.272 605.249 538.65Z" fill="#CBD6D9"/>
<path d="M605.25 538.649L526.273 589.808C522.297 592.385 516.669 593.327 511.041 592.77C514.4 588.201 516.397 583.74 516.397 583.74C516.397 583.74 508.621 579.528 533.902 569.892C559.183 560.252 558.318 544.908 576.709 543.634C595.102 542.359 604.506 521.421 604.506 521.421C611.569 526.71 612.014 534.271 605.25 538.649Z" fill="#B1BFC7"/>
<path d="M542.406 564.252C544.027 571.332 535.713 579.846 523.834 583.268C511.954 586.69 501.013 583.729 499.392 576.652C497.772 569.572 506.085 561.059 517.965 557.637C529.841 554.211 540.785 557.172 542.406 564.252Z" fill="#909AAB"/>
<path d="M566.564 558.371C566.243 558.481 565.922 558.592 565.601 558.675C560.491 560.144 555.552 560.449 551.48 559.756C549.652 559.424 547.976 558.925 546.543 558.204C543.703 556.847 541.755 554.741 541.138 552.056C540.248 548.149 542.422 543.775 546.543 540.089C547.951 538.815 549.606 537.623 551.455 536.57C553.9 535.129 556.688 533.938 559.726 533.051C567.897 530.696 575.625 531.361 580.191 534.298C582.24 535.656 583.673 537.457 584.164 539.67C585.72 546.542 577.918 554.796 566.564 558.371Z" fill="#909AAB"/>
<path d="M533.902 493.372C533.902 508.221 513.474 516.059 501.937 523.53C496.525 527.036 507.593 530.617 496.562 529.803C489.814 529.304 487.362 527.514 485.235 526.097C483.111 524.684 481.512 522.917 481.052 520.468C480.842 519.343 479.811 510.438 480.966 497.497C481.463 491.945 492.157 473.227 501.937 468.132C518.352 459.584 533.902 478.523 533.902 493.372Z" fill="#E4E5E9"/>
<path d="M529.875 484.83C529.875 492.807 527.186 502.197 522.888 510.34C520.764 514.354 518.248 518.095 515.482 521.171C513.432 523.471 511.262 525.383 508.99 526.848C498.398 533.716 483.882 528.15 482.622 521.448C482.499 520.755 482.054 515.383 481.955 509.813C481.857 505.272 481.807 497.157 481.931 496.686C483.931 488.903 492.77 475.994 501.88 469.541C513.383 461.342 529.875 469.957 529.875 484.83Z" fill="#E9ECF3"/>
<path d="M490.675 522.782C490.654 523.35 490.444 523.904 490.033 524.227C489.697 524.486 489.286 524.566 488.622 524.365C486.214 523.658 484.841 522.509 484.291 521.48C483.948 520.836 483.797 519.523 483.797 519.523C483.099 515.218 482.942 505.239 483.742 501.394C483.893 500.649 484.479 500.144 485.159 500.175C485.529 500.189 485.992 500.275 486.52 500.497C486.65 500.552 486.779 500.604 486.909 500.673C489.175 501.816 489.249 502.024 489.857 503.008C490.938 504.768 490.466 508.557 490.466 508.557C490.234 517.102 490.617 520.34 490.669 522.103C490.685 522.353 490.685 522.574 490.675 522.782Z" fill="#95A2D7"/>
<path d="M535.504 504.58C535.504 536.099 535.504 570.584 535.504 570.584C535.504 571.831 534.961 573.05 533.899 574.127C533.528 574.515 533.084 574.848 532.59 575.18C531.775 575.707 530.861 576.122 529.873 576.427C527.996 577.009 525.85 577.203 523.825 576.954C521.849 576.732 519.975 576.15 518.444 575.153C516.394 573.823 515.434 572.077 515.505 570.335H515.48V515.657C515.48 515.657 515.826 511.196 512.862 509.73C512.122 509.342 511.183 509.149 509.973 509.259C504.543 509.786 511.603 466.382 511.603 466.382C520.936 466.382 527.551 472.198 529.502 475.662C532.519 481.037 535.504 483.86 535.504 504.58Z" fill="#E9ECF3"/>
<path d="M533.902 497.961V574.131C533.532 574.519 533.087 574.852 532.593 575.184C531.778 575.711 530.864 576.126 529.876 576.431C529.901 559.314 529.926 520.229 529.876 504.165C529.827 483.337 526.175 479.985 526.175 479.985C526.175 479.985 523.903 476.549 527.533 475.305C531.926 479.763 533.902 497.961 533.902 497.961Z" fill="#F8F9FB"/>
<path d="M523.829 576.955C521.853 576.733 519.979 576.151 518.448 575.153C516.398 573.823 515.438 572.078 515.509 570.335H515.484V521.172C518.25 518.096 520.767 514.359 522.891 510.341C523.508 512.087 523.878 514.47 523.829 517.625C523.656 531.726 523.78 557.374 523.829 576.955Z" fill="#BAC3E2"/>
<path d="M496.088 512.169C496.489 502.242 508.906 487.909 517.037 482.152C522.776 478.09 526.935 479.025 529.494 482.838C528.151 473.337 523.085 467.976 514.364 474.148C506.229 479.905 493.816 494.241 493.414 504.164C493.062 512.848 492.411 521.573 495.949 525.681C495.606 521.659 495.896 516.904 496.088 512.169Z" fill="#F8F9FB"/>
<path d="M490.675 522.1C488.437 521.947 488.007 520.773 488.007 520.773C488.007 520.773 488.02 513.666 488.007 506.956C488.001 503.472 487.248 501.536 486.522 500.493C486.652 500.549 486.782 500.601 486.911 500.67C489.177 501.813 489.252 502.021 489.86 503.004C490.94 504.764 490.468 508.553 490.468 508.553C490.239 517.095 490.622 520.333 490.675 522.1Z" fill="#48466D"/>
<path d="M593.944 500.226C592.684 508.577 583.633 523.499 573.056 530.346C565.332 535.351 558.08 530.644 554.131 522.525C552.838 519.875 551.909 516.869 551.421 513.714C551.168 512.093 551.038 510.444 551.038 508.785C551.038 497.4 557.209 487.545 565.282 480.528C567.74 478.394 570.367 476.52 573.053 474.948C574.488 474.103 575.995 473.542 577.514 473.213C577.52 473.213 577.526 473.206 577.542 473.206C578.184 473.067 578.829 472.967 579.471 472.908C579.786 472.884 580.067 472.87 580.28 472.852C580.922 472.828 581.567 472.839 582.197 472.877C584.448 473.036 586.584 473.621 588.396 474.487C590.477 475.478 592.132 476.829 593.083 478.318C593.185 478.481 593.28 478.647 593.37 478.817C593.753 479.555 593.95 480.306 593.944 481.065C593.932 482.308 594.157 498.83 593.944 500.226Z" fill="#E4E5E9"/>
<path d="M601.961 503.981C601.961 504.119 601.955 504.247 601.949 504.379C601.943 504.788 601.921 505.079 601.9 505.217C601.844 505.602 601.77 506 601.668 506.409C599.806 514.923 591.104 528.808 581.012 535.341C577.236 537.79 572.769 537.904 568.456 536.446C562.708 534.489 557.25 529.712 554.122 523.873C552.433 520.71 551.421 517.226 551.421 513.717C551.421 501.397 561.964 483.327 572.855 475.765C572.861 475.759 572.871 475.748 572.877 475.748C574.43 474.674 575.983 473.812 577.517 473.216C577.523 473.216 577.529 473.209 577.545 473.209C578.011 473.033 578.81 472.956 579.474 472.911C579.789 472.887 580.07 472.873 580.283 472.856C580.879 472.811 581.521 472.825 582.2 472.88C584.068 473.064 586.217 473.649 588.399 474.491C593.385 476.427 598.519 479.773 600.748 482.973C601.492 484.033 601.918 485.083 601.903 486.06V486.288C601.903 486.295 601.903 486.295 601.903 486.302C601.9 488.373 602.051 500.011 601.961 503.981Z" fill="#E4E5E9"/>
<path d="M601.966 503.971C601.966 504.11 601.966 504.248 601.942 504.387C601.942 504.664 601.917 504.941 601.917 505.218C601.867 505.551 601.793 505.966 601.67 506.41C598.978 516.714 589.719 527.185 586.018 530.617C584.388 532.141 582.412 533.471 580.192 534.303C577.871 535.217 575.281 535.605 572.539 535.217C571.329 535.051 569.526 535.633 568.862 536.131C568.714 536.215 568.566 536.325 568.467 536.436C566.491 538.376 566.565 542.501 566.565 542.501V558.372C566.244 558.483 565.923 558.593 565.602 558.677C565.256 558.787 564.911 558.871 564.59 558.926C563.231 559.314 561.873 559.563 560.567 559.757C557.285 560.228 554.198 560.228 551.481 559.757C549.654 559.425 547.977 558.926 546.545 558.206V529.925C546.545 509.205 549.459 501.2 552.494 495.828C552.519 495.772 552.568 495.717 552.593 495.662C554.05 492.974 557.307 486.909 565.281 480.539C565.553 480.318 565.824 480.068 566.096 479.874C566.565 479.486 567.01 479.098 567.479 478.766C567.701 478.6 567.948 478.406 568.171 478.239C568.418 478.018 568.665 477.851 568.887 477.713C569.875 477.048 570.937 476.383 572.196 475.773C572.246 475.745 572.542 475.635 572.542 475.635C573.431 475.191 574.271 474.692 575.234 474.305C575.654 474.138 576.296 473.889 576.79 473.723C576.963 473.667 577.136 473.584 577.333 473.556C578.494 473.252 579.803 473.113 581.85 473.252C582.369 473.307 582.838 473.307 583.282 473.335C584.641 473.39 585.826 473.529 587.923 474.637C587.947 474.637 587.972 474.637 587.972 474.665C588.244 474.803 588.515 474.97 588.812 475.136C589.157 475.33 590.071 475.662 590.936 475.939C590.936 475.967 590.936 475.967 590.96 475.967C591.627 476.189 592.245 476.41 592.492 476.577C593.035 476.909 593.529 477.214 593.998 477.519C594.023 477.547 594.023 477.547 594.048 477.547C594.048 477.574 594.072 477.574 594.072 477.574C596.048 478.849 597.258 479.708 597.258 479.708C597.727 480.262 599.506 481.786 599.95 482.285C600.617 483.033 601.605 484.751 601.926 486.275C601.926 486.303 601.926 486.303 601.926 486.303C602.025 486.857 602.074 487.577 602 488.492C601.843 490.674 602.188 498.762 601.966 503.971Z" fill="#E9ECF3"/>
<path d="M564.589 510.341V558.923C563.231 559.31 561.872 559.56 560.566 559.754V516.655L564.589 510.341Z" fill="#F8F9FB"/>
<path d="M601.983 502.623C601.885 503.261 601.122 492.035 600.338 490.649C597.809 486.202 591.055 486.96 583.846 491.2C574.81 496.517 563.603 503.001 563.455 529.37C561.603 527.015 560.467 523.804 560.467 519.814C560.467 499.315 571.948 489.593 582.216 483.556C590.363 478.765 601.406 480.954 601.357 485.804C601.329 486.856 602.156 501.404 601.983 502.623Z" fill="#F8F9FB"/>
<path d="M600.73 482.973C599.569 482.003 598.383 479.953 594.064 477.573C594.064 477.573 594.04 477.573 594.04 477.545C594.015 477.545 594.015 477.545 593.99 477.518C592.978 476.964 591.965 476.437 590.952 475.966C590.928 475.966 590.928 475.966 590.928 475.938C589.94 475.467 588.952 475.052 587.964 474.664C587.964 474.636 587.939 474.636 587.915 474.636C586.334 474.026 585.982 473.822 584.475 473.573C582.401 473.212 580.891 473.677 579.017 474.231C578.82 474.258 578.647 474.342 578.474 474.397C578.054 474.536 577.659 474.702 577.239 474.896C573.093 476.891 568.842 480.015 565.631 483.811C557.83 493.007 551.501 500.756 551.501 531.697C551.501 532.777 551.476 534.44 551.452 536.57V538.787C551.427 544.713 551.427 547.152 551.427 547.983C551.427 547.983 551.452 551.942 551.476 559.756C549.649 559.424 547.972 558.925 546.54 558.204V529.923C546.54 509.204 549.454 501.199 552.489 495.827C552.514 495.771 552.563 495.716 552.588 495.661C554.045 492.973 557.302 486.908 565.276 480.538C565.548 480.316 565.82 480.067 566.091 479.873C566.561 479.485 567.005 479.097 567.474 478.765C567.697 478.598 567.944 478.404 568.166 478.238C568.413 478.017 568.66 477.85 568.882 477.712C570.24 476.686 571.648 475.772 573.053 474.941C574.485 474.109 575.992 473.528 577.52 473.223C577.52 473.223 577.52 473.195 577.545 473.195C578.014 473.029 578.804 472.946 579.471 472.918C579.792 472.89 580.064 472.863 580.286 472.863C580.879 472.807 581.521 472.835 582.188 472.863C584.435 473.029 586.581 473.611 588.384 474.497C593.373 476.437 598.507 479.762 600.73 482.973Z" fill="#BAC3E2"/>
<path d="M516.41 502.884C516.41 506.41 514.191 510.712 511.449 512.485C508.711 514.262 506.488 512.838 506.488 509.312C506.488 505.786 508.711 501.484 511.449 499.711C514.188 497.938 516.41 499.358 516.41 502.884Z" fill="#C0CAE5"/>
<path d="M592.731 505.139C592.731 508.665 590.508 512.967 587.77 514.74C585.028 516.514 582.809 515.093 582.809 511.567C582.809 508.041 585.031 503.743 587.77 501.966C590.508 500.189 592.731 501.609 592.731 505.139Z" fill="#C0CAE5"/>
<defs>
<linearGradient id="paint0_linear_1556_1432" x1="448.794" y1="624.967" x2="589.852" y2="626.158" gradientUnits="userSpaceOnUse">
<stop stop-color="#3D9ABE"/>
<stop offset="0.0652" stop-color="#3D98BC"/>
<stop offset="0.4437" stop-color="#3C96BA"/>
<stop offset="0.6145" stop-color="#48B7E2"/>
</linearGradient>
<linearGradient id="paint1_linear_1556_1432" x1="461.925" y1="510.804" x2="562.092" y2="665.438" gradientUnits="userSpaceOnUse">
<stop stop-color="#4DC4FF"/>
<stop offset="0.9162" stop-color="#75CFFF"/>
</linearGradient>
</defs>
</svg>
